<svg xmlns="http://www.w3.org/2000/svg" width="181" height="175"><defs><linearGradient id="a" x1="77.222%" x2="22.778%" y1="4.488%" y2="95.512%"><stop offset="0%" stop-color="#12CD87"/><stop offset="100%" stop-color="#12ABCD"/></linearGradient></defs><path fill="url(#a)" fill-rule="evenodd" d="M178.496 81.166a14.998 14.998 0 0 0 0-15L144.944 8.05a15.002 15.002 0 0 0-12.991-7.5H64.848a15 15 0 0 0-12.99 7.5L29.895 46.089a.011.011 0 0 0-.01.006L2.277 93.915a15 15 0 0 0 0 15L35.83 167.03a15 15 0 0 0 12.99 7.5h67.106a14.999 14.999 0 0 0 12.99-7.5l21.962-38.039a.012.012 0 0 0 .01-.005l27.608-47.82Zm-27.618 47.825 1.32-2.287a14.998 14.998 0 0 0 0-15l-33.552-58.115a15.002 15.002 0 0 0-12.991-7.5h-75.76l-1.32 2.287a15 15 0 0 0 0 15l33.553 58.115a15 15 0 0 0 12.99 7.5h75.76Z"/></svg>