<svg id="root" width="46" height="33" viewBox="0 0 46 33" fill="none" xmlns="http://www.w3.org/2000/svg">
<g clip-path="url(#clip0_169_1473)">
<path d="M3.33242 33.0004H10.4915V16.6568L0.26416 9.44629V30.1164C0.26416 31.7098 1.63719 33.0006 3.33242 33.0006V33.0004Z" fill="#939DB8"/>
<path d="M35.0366 33.0004H42.1958C43.8909 33.0004 45.2639 31.7098 45.2639 30.1163V9.44629L35.0366 16.6568V33.0004Z" fill="#62697D"/>
<path d="M35.0366 4.15853V16.6567L45.2639 9.4462V5.60066C45.2639 2.03628 40.9353 0.00052321 37.9003 2.13963L35.0366 4.15853Z" fill="#939DB8"/>
<path fill-rule="evenodd" clip-rule="evenodd" d="M10.4917 16.6563V4.1582L22.7644 12.8108L35.0371 4.1582V16.6563L22.7644 25.3089L10.4917 16.6563Z" fill="#939DB8" fill-opacity="0.6"/>
<path d="M0.26416 5.60066V9.4462L10.4915 16.6567V4.15853L7.62781 2.13964C4.59277 0.000526786 0.26416 2.03628 0.26416 5.6005V5.60066Z" fill="#62697D" fill-opacity="0.5"/>
</g>
<defs>
<clipPath id="clip0_169_1473">
<rect width="45" height="33" fill="white" transform="translate(0.26416 0.000976562)"/>
</clipPath>
</defs>
</svg>
