<svg xmlns="http://www.w3.org/2000/svg" fill="none" viewBox="0 0 46 33">
  <path fill="#939393" d="M3.332 33h7.16V16.657L.264 9.447v20.67C.264 31.71 1.637 33 3.332 33Z"/>
  <path fill="#626262" d="M35.037 33h7.159c1.695 0 3.068-1.29 3.068-2.884V9.446l-10.227 7.21V33Z"/>
  <path fill="#939393" d="M35.037 4.159v12.498l10.227-7.21V5.6c0-3.565-4.329-5.6-7.364-3.461l-2.863 2.019Z"/>
  <path fill="#939393" fill-opacity=".6" fill-rule="evenodd" d="M10.492 16.656V4.158l12.272 8.653 12.273-8.653v12.498L22.764 25.31l-12.272-8.653Z" clip-rule="evenodd"/>
  <path fill="#626262" fill-opacity=".5" d="M.264 5.6v3.846l10.227 7.21V4.16l-2.863-2.02C4.593.002.264 2.037.264 5.602Z"/>
</svg>
