<svg id="root" fill="none" viewBox="0 0 24 25" xmlns="http://www.w3.org/2000/svg"><path d="m7.88 12.5678c0 .3-.03667.59-.11.87-.06667.2734-.17667.52-.33.74-.14667.22-.34.3934-.58.52-.24667.1334-.53667.2-.87.2s-.61667-.0666-.85-.2c-.23333-.14-.42333-.3233-.57-.55-.14667-.22-.25667-.47-.33-.75-.06667-.28-.1-.5666-.1-.86 0-.2933.03333-.5833.1-.87.06667-.2866.18-.54.34-.76.14667-.2266.34333-.4066.59-.54.24-.1333.53-.2.87-.2s.62667.0667.86.2c.23333.14.42333.3234.57.55.14667.2267.25.4834.31.77.06667.2867.1.58.1.88zm16.12-.04v9.38c0 .3067-.11.5734-.33.8-.22.2134-.4867.32-.8.32h-15.74c-.30667 0-.57333-.11-.8-.33-.21333-.22-.32-.4866-.32-.8v-3.37h-5.01c-.273333 0-.506667-.1-.7-.3-.2-.1933-.3-.4266-.3-.7v-9.99997c0-.27333.1-.50666.3-.7.186667-.2.42-.3.7-.3h6.5v-3.45c0-.29333.1-.54333.3-.75.2-.2.45-.3.75-.3h12.9c.2933 0 .5433.1.75.3.2.2.3.45.3.75v8.29997l1.24.72h.01c.0667.0467.1267.1067.18.18.0467.08.07.1634.07.25zm-6-8.24997v3h3v-3zm0 4.5v2.99997h3v-2.99997zm0 4.49997v1.83l3.05-1.83zm-5.25-8.99997v3h3.75v-3zm0 4.5v2.99997h3.75v-2.99997zm0 4.49997v2.03l2.41 1.5 1.34-.8v-2.73zm-3.75-8.99997v2.25h2l.13.01.12.04v-2.3zm-3.02 12.22997c.6 0 1.13333-.1 1.6-.3.46667-.2133.86333-.5 1.19-.86.32-.3666.56333-.7933.73-1.28.16667-.4933.25-1.03.25-1.61 0-.5533-.08333-1.07-.25-1.55-.16-.4733-.39667-.8866-.71-1.23997-.31333-.35333-.69667-.63-1.15-.83s-.97-.3-1.55-.3c-.61333 0-1.16.1-1.64.3-.47333.2-.87333.48334-1.2.85-.33333.35997-.58333.79337-.75 1.29997-.16667.4934-.25 1.0367-.25 1.63 0 .5667.08667 1.0867.26 1.56.17333.48.42.89.74 1.23.32.3467.71.6167 1.17.81.46.2.98.3 1.56.3zm1.52 5.02h12.39l-7.89-4.92v.92c0 .2734-.1.5067-.3.7-.1933.2-.4267.3-.7.3h-3.5zm15-.13v-7.24l-5.9 3.54z" fill="#939db8"/></svg>
