<svg xmlns="http://www.w3.org/2000/svg" fill="none" viewBox="0 0 24 25">
  <path fill="#939393" d="M7.88 12.568c0 .3-.037.59-.11.87-.067.273-.177.52-.33.74-.147.22-.34.393-.58.52-.247.133-.537.2-.87.2s-.617-.067-.85-.2a1.73 1.73 0 0 1-.57-.55 2.467 2.467 0 0 1-.33-.75 3.829 3.829 0 0 1 0-1.73c.067-.287.18-.54.34-.76a1.59 1.59 0 0 1 .59-.54c.24-.134.53-.2.87-.2s.627.067.86.2c.233.14.423.323.57.55.147.227.25.483.31.77.067.286.1.58.1.88zm16.12-.04v9.38a1.111 1.111 0 0 1-1.13 1.12H7.13a1.111 1.111 0 0 1-1.12-1.13v-3.37H1a.938.938 0 0 1-.7-.3.938.938 0 0 1-.3-.7v-10c0-.273.1-.507.3-.7.187-.2.42-.3.7-.3h6.5v-3.45c0-.293.1-.543.3-.75.2-.2.45-.3.75-.3h12.9c.293 0 .543.1.75.3.2.2.3.45.3.75v8.3l1.24.72h.01a.768.768 0 0 1 .18.18.49.49 0 0 1 .07.25zm-6-8.25v3h3v-3zm0 4.5v3h3v-3zm0 4.5v1.83l3.05-1.83zm-5.25-9v3h3.75v-3zm0 4.5v3h3.75v-3zm0 4.5v2.03l2.41 1.5 1.34-.8v-2.73zm-3.75-9v2.25h2l.13.01.12.04v-2.3zm-3.02 12.23c.6 0 1.133-.1 1.6-.3.467-.213.863-.5 1.19-.86.32-.367.563-.793.73-1.28a5 5 0 0 0 .25-1.61c0-.553-.083-1.07-.25-1.55a3.568 3.568 0 0 0-.71-1.24c-.313-.353-.697-.63-1.15-.83s-.97-.3-1.55-.3c-.613 0-1.16.1-1.64.3-.473.2-.873.483-1.2.85a3.49 3.49 0 0 0-.75 1.3 5.067 5.067 0 0 0-.25 1.63c0 .567.087 1.087.26 1.56.173.48.42.89.74 1.23.32.347.71.617 1.17.81.46.2.98.3 1.56.3zm1.52 5.02h12.39L12 16.608v.92c0 .273-.1.507-.3.7-.193.2-.427.3-.7.3H7.5zm15-.13v-7.24l-5.9 3.54z"/>
</svg>
