<svg id="root" fill="none" viewBox="0 0 22 27" xmlns="http://www.w3.org/2000/svg"><g stroke="#939db8" stroke-linecap="round" stroke-width="1.51852"><path d="m1.75984 8.75483 9.38296-7.3723c.2834-.22269.6843-.21541.9595.01742l8.7127 7.37229c.3584.30329.3584.85593 0 1.15922l-8.7127 7.37234c-.2752.2328-.6761.2401-.9595.0174l-9.38296-7.37233c-.38689-.30399-.38689-.89005 0-1.19404z"/><path d="m16.1852 13.9074 4.5208 3.2292c.4028.2877.427.8777.0491 1.1974l-8.6528 7.3216c-.2752.2328-.6761.2401-.9595.0174l-9.41544-7.3978c-.37646-.2958-.38853-.8619-.02503-1.1735l3.85323-3.3027"/><path d="m11.6289 17.7037h9.1111"/></g></svg>
