<svg xmlns="http://www.w3.org/2000/svg" width="158" height="158"><g fill="none" fill-rule="nonzero"><path fill="#FF3465" d="M158 11.349v63.204c0 10.189-12.266 15.325-19.477 8.118l-1.657-1.657a1.634 1.634 0 0 1-.498-1.16V42.081c0-11.266-9.199-20.46-20.554-20.46h-37.71a1.63 1.63 0 0 1-1.16-.498l-1.658-1.656c-.58-.58-1.078-1.16-1.492-1.823C70.81 13.088 71.639 7.29 75.12 3.562 77.109 1.408 79.927 0 83.325 0h63.32c1.575 0 3.067.331 4.393.911 1.362.553 2.6 1.37 3.647 2.402A11.403 11.403 0 0 1 158 11.35v-.001Z"/><path fill="#FF89A6" d="M128.081 42.163v67.594c0 10.852-13.095 16.319-20.803 8.615l-.331-.331a1.634 1.634 0 0 1-.498-1.16V72.895c0-11.68-9.614-21.289-21.3-21.289H41.057c-.415 0-.829-.166-1.16-.497l-.332-.331c-7.708-7.704-2.32-20.875 8.62-20.875h67.713c6.713 0 12.183 5.467 12.183 12.26Z"/><path fill="#FFC2D1" d="M98.161 144.964V72.896a12.978 12.978 0 0 0-13.012-13.005H13.043c-11.603 0-17.405 13.999-9.2 22.2l72.106 72.068c8.122 8.2 22.212 2.402 22.212-9.195Z"/></g></svg>