<!-- Downloaded from lucide/circle-dashed.svg -->
<svg xmlns="http://www.w3.org/2000/svg" width="1em" height="1em" viewBox="0 0 24 24"><path fill="none" stroke="currentColor" stroke-linecap="round" stroke-linejoin="round" stroke-width="2" d="M10.1 2.182a10 10 0 0 1 3.8 0m0 19.636a10 10 0 0 1-3.8 0m7.509-18.097a10 10 0 0 1 2.69 2.7M2.182 13.9a10 10 0 0 1 0-3.8m18.097 7.509a10 10 0 0 1-2.7 2.69M21.818 10.1a10 10 0 0 1 0 3.8M3.721 6.391a10 10 0 0 1 2.7-2.69m-.03 16.578a10 10 0 0 1-2.69-2.7"/></svg>