<svg width="97" height="100" viewBox="0 0 97 100" fill="none" xmlns="http://www.w3.org/2000/svg">
  <path fill="currentColor" d="M32.6602 78L43.6042 22.14H54.3962L65.3402 78H55.7642L53.8642 66.22H44.1362L42.2362 78H32.6602ZM52.5722 58.24L49.7602 40.76C49.6082 40 49.4562 39.2653 49.3042 38.556C49.2028 37.796 49.1015 37.036 49.0002 36.276C48.8988 37.036 48.7722 37.796 48.6202 38.556C48.5188 39.2653 48.3922 40 48.2402 40.76L45.4282 58.24H52.5722Z" />
  <path fill="currentColor" d="M82.1211 51.5781C82.1211 38.6953 78.8008 28.1367 72.1602 19.9023C65.5195 11.6237 57.1523 7.48438 47.0586 7.48438C37.3633 7.48438 29.5716 11.026 23.6836 18.1094C17.8398 25.1927 14.918 34.6667 14.918 46.5312C14.918 59.724 18.2383 70.5482 24.8789 79.0039C31.5638 87.4596 39.9089 91.6875 49.9141 91.6875C59.5651 91.6875 67.3346 88.0573 73.2227 80.7969C79.1549 73.4922 82.1211 63.7526 82.1211 51.5781ZM48.5195 0.046875C55.2487 0.046875 61.2474 1.02083 66.5156 2.96875C71.8281 4.8724 76.6315 7.83854 80.9258 11.8672C86.0612 16.737 89.9792 22.3815 92.6797 28.8008C95.4245 35.2201 96.7969 42.0378 96.7969 49.2539C96.7969 56.6029 95.3581 63.5534 92.4805 70.1055C89.6029 76.6576 85.5078 82.3021 80.1953 87.0391C75.9453 90.8464 70.987 93.8346 65.3203 96.0039C59.6979 98.1289 54.0534 99.1914 48.3867 99.1914C41.3034 99.1914 34.7734 97.8854 28.7969 95.2734C22.8646 92.6615 17.6185 88.7878 13.0586 83.6523C8.89714 78.9596 5.70964 73.6914 3.49609 67.8477C1.32682 62.0039 0.242188 55.8503 0.242188 49.3867C0.242188 42.3919 1.54818 35.7956 4.16016 29.5977C6.81641 23.3555 10.6458 17.888 15.6484 13.1953C20.1641 8.94531 25.2552 5.69141 30.9219 3.43359C36.5885 1.17578 42.4544 0.046875 48.5195 0.046875Z" />
</svg>
