<!-- Downloaded from tabler/brand-reddit.svg -->
<svg xmlns="http://www.w3.org/2000/svg" width="1em" height="1em" viewBox="0 0 24 24"><g fill="none" stroke="currentColor" stroke-linecap="round" stroke-linejoin="round" stroke-width="2"><path d="M12 8c2.648 0 5.028.826 6.675 2.14a2.5 2.5 0 0 1 2.326 4.36c0 3.59-4.03 6.5-9 6.5c-4.875 0-8.845-2.8-9-6.294l-1-.206a2.5 2.5 0 0 1 2.326-4.36C5.973 8.827 8.353 8 11.001 8zm0 0l1-5l6 1"/><path d="M18 4a1 1 0 1 0 2 0a1 1 0 1 0-2 0"/><circle cx="9" cy="13" r=".5" fill="currentColor"/><circle cx="15" cy="13" r=".5" fill="currentColor"/><path d="M10 17q1 .5 2 .5c1 0 1.333-.167 2-.5"/></g></svg>