<svg xmlns="http://www.w3.org/2000/svg" width="1024" height="1024" fill="none"><g clip-path="url(#a)"><path fill="#000" d="M1024 0H0v1024h1024V0Z"/><path fill="#fff" d="M725 683a225 225 0 0 1-438-73V499.9l79.1 33V610a145.6 145.6 0 0 0 139.6 145.8h12.6a145.3 145.3 0 0 0 89.7-36 146 146 0 0 0 43.5-67.6L725 683ZM737 414v196c0 2.6 0 5.1-.2 7.7l-79-33V414a145.9 145.9 0 0 0-291.7 0v48.7l-79.1-33V189h225a225 225 0 0 1 225 225Z"/></g><defs><clipPath id="a"><rect width="1024" height="1024" fill="#fff" rx="200"/></clipPath></defs></svg>