<svg xmlns="http://www.w3.org/2000/svg" width="300" height="300" fill="none"><g clip-path="url(#a)"><path fill="#0062FF" fill-rule="evenodd" d="M66.4 274.3a149.7 149.7 0 1 0 167.8-248 149.7 149.7 0 0 0-167.8 248ZM48 116.7c-17.2 52.6-11.5 105.2 11.2 139.7-41.2-39-52-106-22.3-164 19-37.2 50.7-63 85.6-74-32 18.3-60 53.4-74.5 98.3ZM175.3 283c36-10.5 69-36.7 88.4-74.8 29.4-57.5 19-123.9-21.3-163 21.8 34.5 27 86.2 10.2 138-15 46.1-44.2 82-77.3 99.8Zm8.3-16.9c24.3-20.8 44.4-55.6 53.3-97.4 14.1-66.1-4.3-127.6-41.8-148.1 19.9 26.7 30 78.6 23.7 136.6-4.7 44.4-18 83.3-35.2 109ZM63.7 131.8c-14.2 66.6 4.7 128.5 42.7 148.6C86 254 75.6 201.5 81.9 142.7c4.6-43.6 17.6-82 34.3-107.6-24 20.9-43.7 55.4-52.5 96.7Zm136.1 17.8c1.1 67.9-20.2 123.3-47.6 123.7-27.3.4-50.4-54.3-51.5-122.2-1-67.9 20.3-123.3 47.6-123.7 27.4-.5 50.5 54.2 51.5 122.2Z" clip-rule="evenodd"/></g><defs><clipPath id="a"><path fill="#fff" d="M0 0h300v300H0z"/></clipPath></defs></svg>