<svg xmlns="http://www.w3.org/2000/svg" viewBox="0 0 1081 179" width="1081" height="179" fill="none"><path fill="#0068FF" d="M81.088 89.18a13.287 13.287 0 0 1-13.182 13.296 13.305 13.305 0 0 1-9.42-3.856A13.294 13.294 0 0 1 67.8 75.884a12.992 12.992 0 0 1 9.365 3.801 13.267 13.267 0 0 1 3.922 9.496Z"/><mask id="a" width="28" height="28" x="54" y="75" maskUnits="userSpaceOnUse" style="mask-type:luminance"><path fill="#fff" d="M81.088 89.18a13.287 13.287 0 0 1-13.182 13.296 13.305 13.305 0 0 1-9.42-3.856A13.294 13.294 0 0 1 67.8 75.884a12.992 12.992 0 0 1 9.365 3.801 13.267 13.267 0 0 1 3.922 9.496Z"/></mask><g fill="#0068FF" mask="url(#a)"><path d="M54.56 75.884h-.045v26.638h.045V75.884ZM55.067 75.884h-.507v26.638h.507V75.884Z"/><path d="M55.559 75.884h-.507v26.638h.507V75.884ZM56.066 75.884h-.507v26.638h.507V75.884ZM56.573 75.884h-.507v26.638h.507V75.884Z"/><path d="M57.065 75.884h-.507v26.638h.507V75.884ZM57.572 75.884h-.507v26.638h.507V75.884Z"/><path d="M58.064 75.884h-.507v26.638h.507V75.884ZM58.571 75.884h-.507v26.638h.507V75.884Z"/><path d="M59.063 75.884h-.507v26.638h.507V75.884ZM59.57 75.884h-.507v26.638h.507V75.884Z"/><path d="M60.062 75.884h-.507v26.638h.507V75.884ZM60.57 75.884h-.508v26.638h.507V75.884Z"/><path d="M61.076 75.884h-.507v26.638h.507V75.884Z"/><path d="M61.568 75.884h-.507v26.638h.507V75.884ZM62.075 75.884h-.507v26.638h.507V75.884Z"/><path d="M62.567 75.884h-.507v26.638h.507V75.884ZM63.074 75.884h-.507v26.638h.507V75.884Z"/><path d="M63.566 75.884h-.507v26.638h.507V75.884Z"/><path d="M64.073 75.884h-.507v26.638h.507V75.884ZM64.58 75.884h-.507v26.638h.507V75.884Z"/><path d="M65.073 75.884h-.507v26.638h.507V75.884ZM65.58 75.884h-.507v26.638h.507V75.884Z"/><path d="M66.072 75.884h-.507v26.638h.507V75.884Z"/><path d="M66.579 75.884h-.507v26.638h.507V75.884Z"/><path d="M67.07 75.884h-.506v26.638h.507V75.884ZM67.578 75.884h-.507v26.638h.507V75.884Z"/><path d="M68.07 75.884h-.507v26.638h.507V75.884ZM68.577 75.884h-.507v26.638h.507V75.884ZM69.084 75.884h-.507v26.638h.507V75.884Z"/><path d="M69.576 75.884h-.507v26.638h.507V75.884ZM70.083 75.884h-.507v26.638h.507V75.884Z"/><path d="M70.575 75.884h-.507v26.638h.507V75.884Z"/><path d="M71.082 75.884h-.507v26.638h.507V75.884Z"/><path d="M71.574 75.884h-.507v26.638h.507V75.884ZM72.081 75.884h-.507v26.638h.507V75.884Z"/><path d="M72.573 75.884h-.507v26.638h.507V75.884ZM73.08 75.884h-.507v26.638h.507V75.884ZM73.587 75.884h-.507v26.638h.507V75.884Z"/><path d="M74.08 75.884h-.508v26.638h.507V75.884Z"/><path d="M74.586 75.884h-.507v26.638h.507V75.884Z"/><path d="M75.078 75.884h-.507v26.638h.507V75.884Z"/><path d="M75.585 75.884h-.507v26.638h.507V75.884Z"/><path d="M76.077 75.884h-.507v26.638h.507V75.884ZM76.584 75.884h-.507v26.638h.507V75.884Z"/><path d="M77.091 75.884h-.507v26.638h.507V75.884Z"/><path d="M77.583 75.884h-.507v26.638h.507V75.884ZM78.09 75.884h-.507v26.638h.507V75.884Z"/><path d="M78.582 75.884h-.506v26.638h.507V75.884Z"/><path d="M79.09 75.884h-.508v26.638h.508V75.884Z"/><path d="M79.582 75.884h-.507v26.638h.507V75.884ZM80.089 75.884h-.507v26.638h.507V75.884Z"/><path d="M80.58 75.884h-.506v26.638h.507V75.884Z"/><path d="M81.088 75.884h-.507v26.638h.507V75.884Z"/></g><path fill="#0068FF" d="M196.027 109.006c-1.342 1.401-2.804 2.773-3.982 3.846a92.804 92.804 0 0 0-3.772 3.622s0 .135-.075.209c-.074 5.322-.074 10.777-.074 16.069V142.933a35.458 35.458 0 0 1-10.588 26.101 35.117 35.117 0 0 1-24.38 9.242c-.716 0-1.492 0-2.163-.074a12.838 12.838 0 0 1-9.029-3.865 12.816 12.816 0 0 1-3.645-9.119c.134-6.976 5.562-12.178 12.928-12.387h2.699c5.353-.149 8.544-3.279 8.723-8.601.075-2.042 0-4.144 0-6.126V128.891c0-5.083 0-10.434-.074-15.771a15.462 15.462 0 0 1 5.607-12.849c1.834-1.49 3.668-3.324 5.442-4.993l1.268-1.223 1.715-1.64c1.819-1.714 2.028-2.757 2.028-3.13 0-.373-.209-1.49-2.088-3.205l-2.162-2.057c-2.237-2.131-4.548-4.338-6.86-6.38a14.332 14.332 0 0 1-4.92-11.224V34.862c0-4.8-2.371-8.02-6.457-8.944a17.729 17.729 0 0 0-3.236-.179h-1.491c-7.59-.179-13.227-5.754-13.122-12.924.104-7.17 5.621-12.268 13.107-12.506 15.955-.507 27.199 6.141 33.477 19.736a44.391 44.391 0 0 1 3.086 14.042c.264 3.068.329 6.15.194 9.227v8.839c0 3.19 0 6.47.075 9.645.023.103.069.2.134.283 1.193 1.252 2.58 2.534 3.802 3.667l.343.313c1.104 1.028 2.252 2.102 3.37 3.25a28.314 28.314 0 0 1 .12 39.695ZM66.668 164.965a12.435 12.435 0 0 1-11.035 13.043 37.97 37.97 0 0 1-4.369.253 34.422 34.422 0 0 1-22.367-7.811 32.205 32.205 0 0 1-11.646-22.106 279.727 279.727 0 0 1-.313-28.456v-.134c.074-2.981-.671-4.159-2.162-5.337a47.023 47.023 0 0 1-7.755-7.662 28.076 28.076 0 0 1 1.82-37.102c1.297-1.341 2.654-2.593 3.847-3.696a54.706 54.706 0 0 0 3.847-3.727c.1-.127.18-.267.239-.417.074-3.772 0-7.573 0-11.27 0-6.499 0-13.207.357-19.915C18.116 14.396 32.462.816 49.132.413c1.79 0 3.37-.074 4.92 0a12.686 12.686 0 0 1 9.096 3.39 12.677 12.677 0 0 1-8.186 21.951c-1.07.1-2.146.135-3.22.104h-1.283a7.83 7.83 0 0 0-8.067 7.305c-.239 3.115-.209 6.394-.18 9.555v23.805a14.096 14.096 0 0 1-4.8 11.03 462.388 462.388 0 0 0-9.5 8.945l-.238.223a4.174 4.174 0 0 0-1.491 2.639 4.263 4.263 0 0 0 1.715 2.623l.895.85c2.892 2.728 5.89 5.575 8.857 8.288a13.71 13.71 0 0 1 4.682 10.807V143.679c0 5.828 3.325 9.078 9.216 9.137h3.295a12.635 12.635 0 0 1 8.255 3.796 12.623 12.623 0 0 1 3.57 8.353Z"/><path fill="#0068FF" d="M153.156 89.3a16.083 16.083 0 0 1-16.06 16.024A16.052 16.052 0 0 1 121.111 89.3a15.905 15.905 0 0 1 4.741-11.388 15.83 15.83 0 0 1 11.259-4.666A16.113 16.113 0 0 1 153.156 89.3ZM83.861 89.18a16.035 16.035 0 0 1-9.901 14.788 16.052 16.052 0 0 1-17.463-3.45 16.034 16.034 0 0 1 2.333-24.655 16.049 16.049 0 0 1 8.882-2.751 15.78 15.78 0 0 1 11.348 4.606A16.038 16.038 0 0 1 83.86 89.18ZM118.576 89.3a16.087 16.087 0 0 1-19.263 15.695 16.091 16.091 0 0 1-8.22-4.411 16.05 16.05 0 0 1 5.32-26.136 16.066 16.066 0 0 1 20.272 7.294 16.044 16.044 0 0 1 1.891 7.558Z"/><path fill="#000" d="M270.317 93.474a404.715 404.715 0 0 1 19.623-55.482h36.295a399.82 399.82 0 0 1 19.803 55.646 391.075 391.075 0 0 1 11.631 56.346h-24.306a340.514 340.514 0 0 0-4.175-22.926h-42.2c-1.382 6.956-2.774 14.598-4.175 22.926h-24.306a407.954 407.954 0 0 1 11.81-56.51Zm55.053 13.624a307.937 307.937 0 0 0-14.583-47.7h-5.398a294.86 294.86 0 0 0-14.405 47.7h34.386ZM365.483 69.922l2.087-10.435-10.766 1.208-.179-11.285.179-11.462h49.671c12.923 0 23.053 3.358 30.39 10.076 7.336 6.718 10.985 16.094 10.945 28.129 0 11.338-3.534 20.392-10.602 27.159-7.068 6.768-17.079 10.618-30.032 11.553l-17.894 1.386v33.688h-23.859l.06-80.017Zm40.127 24.834c5.905-.457 10.448-2.31 13.629-5.56a17.78 17.78 0 0 0 4.772-13.014c0-5.565-1.591-9.877-4.772-12.938-3.191-3.071-7.664-4.606-13.42-4.606h-16.537v37.265l16.328-1.147ZM452.492 129.145l24.142.864V57.997l-24.142.864.701-20.869h71.039l.686 20.87-24.321-.865v72.042l24.306-.864-.686 20.869h-71.024l-.701-20.899ZM552.624 143.649c-5.388-5.963-8.082-15.483-8.082-28.561V84.53l-16.492 1.789V64.555h17.894l-1.492-25.177h25.186l-2.773 25.177h35.609c.485 3.512.714 7.054.686 10.599a81.816 81.816 0 0 1-.686 11.105l-34.402-2.25v29.812c0 6.241 1.308 10.842 3.922 13.803 2.615 2.962 6.522 4.452 11.721 4.472a71.472 71.472 0 0 0 20.667-3.652 136.216 136.216 0 0 1 2.774 16.68 76.694 76.694 0 0 1-15.106 5.456 63.173 63.173 0 0 1-15.463 1.998c-10.587 0-18.575-2.977-23.963-8.929ZM630.329 147.032a37.912 37.912 0 0 1-15.285-15.8 56.389 56.389 0 0 1 0-48.088 37.275 37.275 0 0 1 15.285-15.727 51.62 51.62 0 0 1 46.226 0 36.931 36.931 0 0 1 15.195 15.727 57.258 57.258 0 0 1 0 48.088 37.536 37.536 0 0 1-15.195 15.8 50.878 50.878 0 0 1-46.226 0Zm7.992-20.869a18.19 18.19 0 0 0 14.912 6.604c6.482 0 11.547-2.231 15.195-6.693 3.648-4.462 5.473-10.857 5.473-19.184 0-8.219-1.825-14.5-5.473-18.842-3.648-4.343-8.713-6.51-15.195-6.5-6.362 0-11.333 2.197-14.912 6.59-3.578 4.392-5.378 10.757-5.398 19.094.01 8.249 1.815 14.569 5.413 18.961l-.015-.03ZM722.393 147.032a37.91 37.91 0 0 1-15.284-15.8 56.389 56.389 0 0 1 0-48.088 37.272 37.272 0 0 1 15.284-15.727 51.627 51.627 0 0 1 46.226 0 36.925 36.925 0 0 1 15.195 15.727 57.244 57.244 0 0 1 0 48.088 37.53 37.53 0 0 1-15.195 15.8 50.875 50.875 0 0 1-46.226 0Zm7.978-20.869a18.236 18.236 0 0 0 14.912 6.604c6.481 0 11.546-2.231 15.195-6.693 3.648-4.462 5.497-10.847 5.547-19.155 0-8.218-1.824-14.499-5.473-18.841-3.648-4.343-8.713-6.51-15.195-6.5a18.23 18.23 0 0 0-14.911 6.59c-3.579 4.401-5.374 10.766-5.384 19.094-.009 8.328 1.76 14.638 5.309 18.931v-.03ZM791.852 128.966l18.595 1.491V50.543c-7.764 1.272-13.789 2.37-18.073 3.295-.224-5.083-.343-8.855-.343-11.284 0-2.654.119-6.425.343-11.285 6.372-.457 14.593-.69 24.664-.7 7.406 0 12.848.06 16.328.179v100.007l17.894-1.744-.179 21.018h-59.05l-.179-21.063ZM900.051 118.204a76.75 76.75 0 0 1-15.971 8.854v22.926h-22.934V50.678l-10.244 1.207c-.229-7.175-.343-12.144-.343-14.906v-5.814c5.557-.457 12.098-.69 19.624-.7 6.362 0 10.994.119 13.897.357v74.532a79.09 79.09 0 0 0 18.759-18.826 65.316 65.316 0 0 0 10.066-21.973c5.099-.228 9.076-.342 11.929-.342 2.982 0 7.053.119 12.153.343a81.012 81.012 0 0 1-7.903 20.57 98.603 98.603 0 0 1-13.808 19.543 488.956 488.956 0 0 1 26.751 45.315h-26.886c-5.776-12.73-10.806-23.324-15.09-31.78ZM944.159 128.966l17.372 1.491v-46.21l-16.492 3.13a121.09 121.09 0 0 1-.522-11.284c0-3.697.164-7.528.522-11.12 6.253-.587 13.833-.875 22.74-.865 3.718 0 9.28.114 16.687.343v66.155l15.674-1.64-.181 21.018h-55.621l-.179-21.018Zm14.599-79.69a12.228 12.228 0 0 1-4.175-9.719 12.46 12.46 0 0 1 4.175-9.898c2.773-2.424 6.596-3.637 11.467-3.637a16.23 16.23 0 0 1 11.199 3.638 12.624 12.624 0 0 1 4.07 9.897 12.404 12.404 0 0 1-4.07 9.72 16.23 16.23 0 0 1-11.199 3.651c-4.911 0-8.733-1.217-11.467-3.652ZM1026.4 143.649c-5.39-5.963-8.08-15.483-8.07-28.561V84.53l-16.51 1.789V64.555h17.9l-1.49-25.177h25.15l-2.77 25.177h35.58c.49 3.512.72 7.054.7 10.599a81.73 81.73 0 0 1-.7 11.165l-34.39-2.251v29.813c0 6.24 1.3 10.842 3.91 13.803 2.6 2.961 6.51 4.452 11.72 4.472a71.58 71.58 0 0 0 20.67-3.652 140.41 140.41 0 0 1 2.78 16.68 77.107 77.107 0 0 1-15.13 5.396 63.1 63.1 0 0 1-15.45 1.998c-10.58 0-18.54-2.977-23.9-8.929Z"/></svg>
