<svg width="1081" height="179" viewBox="0 0 1081 179" fill="none" xmlns="http://www.w3.org/2000/svg">
<path d="M81.0876 89.1807C81.0917 92.6878 79.708 96.0541 77.2384 98.5452C74.7688 101.036 71.4139 102.45 67.9057 102.477C64.378 102.491 60.9893 101.103 58.4851 98.6197C55.9808 96.1359 54.5662 92.7594 54.5523 89.233C54.5385 85.7065 55.9266 82.3189 58.4113 79.8156C60.8959 77.3122 64.2737 75.8981 67.8013 75.8843C69.5372 75.8601 71.2602 76.184 72.8687 76.8369C74.4771 77.4898 75.9383 78.4583 77.1659 79.6854C78.4182 80.928 79.4101 82.4078 80.0835 84.0382C80.7569 85.6686 81.0982 87.4169 81.0876 89.1807Z" fill="#0068FF"/>
<mask id="mask0_1_310" style="mask-type:luminance" maskUnits="userSpaceOnUse" x="54" y="75" width="28" height="28">
<path d="M81.0876 89.1807C81.0917 92.6878 79.708 96.0541 77.2384 98.5452C74.7688 101.036 71.4139 102.45 67.9057 102.477C64.378 102.491 60.9893 101.103 58.4851 98.6197C55.9808 96.1359 54.5662 92.7594 54.5523 89.233C54.5385 85.7065 55.9266 82.3189 58.4113 79.8156C60.8959 77.3122 64.2737 75.8981 67.8013 75.8843C69.5372 75.8601 71.2602 76.184 72.8687 76.8369C74.4771 77.4898 75.9383 78.4583 77.1659 79.6854C78.4182 80.928 79.4101 82.4078 80.0835 84.0382C80.7569 85.6686 81.0982 87.4169 81.0876 89.1807Z" fill="white"/>
</mask>
<g mask="url(#mask0_1_310)">
<path d="M54.5598 75.8843H54.5151V102.522H54.5598V75.8843Z" fill="#0068FF"/>
<path d="M55.0668 75.8843H54.5598V102.522H55.0668V75.8843Z" fill="#0068FF"/>
<path d="M55.5589 75.8843H55.0519V102.522H55.5589V75.8843Z" fill="#0068FF"/>
<path d="M56.0659 75.8843H55.5589V102.522H56.0659V75.8843Z" fill="#0068FF"/>
<path d="M56.5729 75.8843H56.0659V102.522H56.5729V75.8843Z" fill="#0068FF"/>
<path d="M57.0649 75.8843H56.558V102.522H57.0649V75.8843Z" fill="#0068FF"/>
<path d="M57.5719 75.8843H57.0649V102.522H57.5719V75.8843Z" fill="#0068FF"/>
<path d="M58.064 75.8843H57.557V102.522H58.064V75.8843Z" fill="#0068FF"/>
<path d="M58.571 75.8843H58.064V102.522H58.571V75.8843Z" fill="#0068FF"/>
<path d="M59.0631 75.8843H58.5561V102.522H59.0631V75.8843Z" fill="#0068FF"/>
<path d="M59.5701 75.8843H59.0631V102.522H59.5701V75.8843Z" fill="#0068FF"/>
<path d="M60.0622 75.8843H59.5552V102.522H60.0622V75.8843Z" fill="#0068FF"/>
<path d="M60.5692 75.8843H60.0622V102.522H60.5692V75.8843Z" fill="#0068FF"/>
<path d="M61.0762 75.8843H60.5692V102.522H61.0762V75.8843Z" fill="#0068FF"/>
<path d="M61.5683 75.8843H61.0613V102.522H61.5683V75.8843Z" fill="#0068FF"/>
<path d="M62.0753 75.8843H61.5683V102.522H62.0753V75.8843Z" fill="#0068FF"/>
<path d="M62.5674 75.8843H62.0604V102.522H62.5674V75.8843Z" fill="#0068FF"/>
<path d="M63.0743 75.8843H62.5674V102.522H63.0743V75.8843Z" fill="#0068FF"/>
<path d="M63.5664 75.8843H63.0594V102.522H63.5664V75.8843Z" fill="#0068FF"/>
<path d="M64.0734 75.8843H63.5664V102.522H64.0734V75.8843Z" fill="#0068FF"/>
<path d="M64.5804 75.8843H64.0734V102.522H64.5804V75.8843Z" fill="#0068FF"/>
<path d="M65.0725 75.8843H64.5655V102.522H65.0725V75.8843Z" fill="#0068FF"/>
<path d="M65.5795 75.8843H65.0725V102.522H65.5795V75.8843Z" fill="#0068FF"/>
<path d="M66.0716 75.8843H65.5646V102.522H66.0716V75.8843Z" fill="#0068FF"/>
<path d="M66.5786 75.8843H66.0716V102.522H66.5786V75.8843Z" fill="#0068FF"/>
<path d="M67.0707 75.8843H66.5637V102.522H67.0707V75.8843Z" fill="#0068FF"/>
<path d="M67.5777 75.8843H67.0707V102.522H67.5777V75.8843Z" fill="#0068FF"/>
<path d="M68.0698 75.8843H67.5628V102.522H68.0698V75.8843Z" fill="#0068FF"/>
<path d="M68.5768 75.8843H68.0698V102.522H68.5768V75.8843Z" fill="#0068FF"/>
<path d="M69.0837 75.8843H68.5768V102.522H69.0837V75.8843Z" fill="#0068FF"/>
<path d="M69.5758 75.8843H69.0688V102.522H69.5758V75.8843Z" fill="#0068FF"/>
<path d="M70.0828 75.8843H69.5758V102.522H70.0828V75.8843Z" fill="#0068FF"/>
<path d="M70.5749 75.8843H70.0679V102.522H70.5749V75.8843Z" fill="#0068FF"/>
<path d="M71.0819 75.8843H70.5749V102.522H71.0819V75.8843Z" fill="#0068FF"/>
<path d="M71.574 75.8843H71.067V102.522H71.574V75.8843Z" fill="#0068FF"/>
<path d="M72.081 75.8843H71.574V102.522H72.081V75.8843Z" fill="#0068FF"/>
<path d="M72.5731 75.8843H72.0661V102.522H72.5731V75.8843Z" fill="#0068FF"/>
<path d="M73.0801 75.8843H72.5731V102.522H73.0801V75.8843Z" fill="#0068FF"/>
<path d="M73.5871 75.8843H73.0801V102.522H73.5871V75.8843Z" fill="#0068FF"/>
<path d="M74.0792 75.8843H73.5722V102.522H74.0792V75.8843Z" fill="#0068FF"/>
<path d="M74.5862 75.8843H74.0792V102.522H74.5862V75.8843Z" fill="#0068FF"/>
<path d="M75.0782 75.8843H74.5713V102.522H75.0782V75.8843Z" fill="#0068FF"/>
<path d="M75.5852 75.8843H75.0782V102.522H75.5852V75.8843Z" fill="#0068FF"/>
<path d="M76.0773 75.8843H75.5703V102.522H76.0773V75.8843Z" fill="#0068FF"/>
<path d="M76.5843 75.8843H76.0773V102.522H76.5843V75.8843Z" fill="#0068FF"/>
<path d="M77.0913 75.8843H76.5843V102.522H77.0913V75.8843Z" fill="#0068FF"/>
<path d="M77.5834 75.8843H77.0764V102.522H77.5834V75.8843Z" fill="#0068FF"/>
<path d="M78.0904 75.8843H77.5834V102.522H78.0904V75.8843Z" fill="#0068FF"/>
<path d="M78.5825 75.8843H78.0755V102.522H78.5825V75.8843Z" fill="#0068FF"/>
<path d="M79.0895 75.8843H78.5825V102.522H79.0895V75.8843Z" fill="#0068FF"/>
<path d="M79.5816 75.8843H79.0746V102.522H79.5816V75.8843Z" fill="#0068FF"/>
<path d="M80.0886 75.8843H79.5816V102.522H80.0886V75.8843Z" fill="#0068FF"/>
<path d="M80.5807 75.8843H80.0737V102.522H80.5807V75.8843Z" fill="#0068FF"/>
<path d="M81.0876 75.8843H80.5807V102.522H81.0876V75.8843Z" fill="#0068FF"/>
</g>
<path d="M196.027 109.006C194.685 110.407 193.223 111.779 192.045 112.852C190.867 113.925 189.48 115.237 188.273 116.474C188.273 116.474 188.273 116.609 188.198 116.683C188.124 122.005 188.124 127.46 188.124 132.752V135.167C188.124 137.746 188.124 140.325 188.124 142.933C188.236 147.776 187.354 152.59 185.533 157.08C183.712 161.569 180.991 165.637 177.536 169.034C170.897 175.129 162.168 178.438 153.156 178.276C152.44 178.276 151.664 178.276 150.993 178.202C149.308 178.182 147.643 177.831 146.094 177.168C144.544 176.504 143.141 175.542 141.964 174.337C140.786 173.131 139.859 171.705 139.233 170.14C138.608 168.576 138.297 166.903 138.319 165.218C138.453 158.242 143.881 153.04 151.247 152.831H153.946C159.299 152.682 162.49 149.552 162.669 144.23C162.744 142.188 162.669 140.086 162.669 138.104V135.331C162.669 133.17 162.669 131.038 162.669 128.891C162.669 123.808 162.669 118.457 162.595 113.12C162.451 110.689 162.885 108.257 163.859 106.025C164.833 103.792 166.321 101.82 168.202 100.271C170.036 98.7805 171.87 96.947 173.644 95.2775L174.912 94.0552L176.627 92.4155C178.446 90.7013 178.655 89.6578 178.655 89.2851C178.655 88.9124 178.446 87.7945 176.567 86.0803L174.405 84.0232C172.168 81.8916 169.857 79.6854 167.545 77.6432C165.946 76.2526 164.675 74.5246 163.824 72.5836C162.973 70.6426 162.563 68.5371 162.625 66.4188C162.625 55.0452 162.625 45.0281 162.625 34.8619C162.625 30.062 160.254 26.8423 156.168 25.9181C155.097 25.7598 154.014 25.6999 152.932 25.7392H151.441C143.851 25.5603 138.214 19.9853 138.319 12.8153C138.423 5.64536 143.94 0.547357 151.426 0.308855C167.381 -0.197962 178.625 6.45032 184.903 20.0449C186.688 24.5268 187.73 29.2696 187.989 34.0867C188.253 37.155 188.318 40.2372 188.183 43.3138V43.5672C188.183 44.8343 188.183 46.1013 188.183 47.3683V52.1533C188.183 55.3433 188.183 58.6227 188.258 61.7977C188.281 61.9009 188.327 61.9976 188.392 62.0809C189.585 63.3331 190.972 64.6151 192.194 65.748L192.537 66.0609C193.641 67.0895 194.789 68.1628 195.907 69.3106C201.128 74.5912 204.066 81.7097 204.088 89.134C204.11 96.5582 201.215 103.694 196.027 109.006Z" fill="#0068FF"/>
<path d="M66.6681 164.965C66.844 168.137 65.7986 171.256 63.7466 173.681C61.6945 176.107 58.7915 177.655 55.6334 178.008C54.1831 178.176 52.7243 178.261 51.2643 178.261C43.1187 178.386 35.1929 175.618 28.8968 170.45C25.5808 167.727 22.8424 164.368 20.8426 160.572C18.8427 156.776 17.6215 152.619 17.2508 148.344C16.6637 138.87 16.5592 129.373 16.9377 119.888V119.754C17.0122 116.773 16.2667 115.595 14.7755 114.417C11.9024 112.172 9.30024 109.601 7.02143 106.755C2.75334 101.41 0.583165 94.6918 0.91811 87.8608C1.25305 81.0298 4.0701 74.5558 8.84065 69.6535C10.138 68.3119 11.4949 67.0598 12.6879 65.9567C14.179 64.6449 15.372 63.4673 16.5351 62.2301C16.6343 62.1032 16.7147 61.9626 16.7736 61.8127C16.8482 58.0414 16.7736 54.2402 16.7736 50.5435C16.7736 44.0443 16.7737 37.3364 17.1315 30.6285C18.1157 14.3955 32.4607 0.815725 49.132 0.413252C50.9214 0.413252 52.502 0.33872 54.0528 0.413252C57.4144 0.292673 60.6862 1.51195 63.1485 3.80286C65.6108 6.09376 67.0619 9.26864 67.1825 12.6291C67.3031 15.9895 66.0834 19.2601 63.7917 21.7216C61.5 24.183 58.324 25.6335 54.9624 25.7541C53.8918 25.8538 52.8163 25.8886 51.7415 25.8585H50.4591C48.4293 25.7922 46.4532 26.517 44.9479 27.8798C43.4427 29.2427 42.5262 31.1369 42.3919 33.1626C42.1533 36.278 42.1831 39.5574 42.2129 42.7176C42.2129 43.9846 42.2129 45.2666 42.2129 46.5336V51.0055C42.2129 56.1035 42.2129 61.44 42.2129 66.5231C42.2759 68.6019 41.878 70.6689 41.0479 72.576C40.2178 74.483 38.9759 76.1829 37.4114 77.5538C34.1606 80.5351 30.9845 83.5164 27.9127 86.4977L27.6741 86.7213C26.8639 87.383 26.3318 88.3245 26.1829 89.3597C26.4006 90.4201 27.0137 91.3581 27.8977 91.9832L28.7925 92.8329C31.6853 95.5608 34.6825 98.4079 37.65 101.121C39.1844 102.461 40.4008 104.127 41.2107 105.996C42.0206 107.866 42.4037 109.892 42.3322 111.928C42.3322 114.984 42.3322 118.054 42.3322 121.125V133.05C42.3322 136.583 42.3322 140.131 42.3322 143.679C42.3322 149.507 45.6575 152.757 51.5476 152.816H53.0388C53.6353 152.816 54.2467 152.816 54.8431 152.816C57.9706 153.014 60.9128 154.367 63.0982 156.612C65.2835 158.857 66.5559 161.834 66.6681 164.965Z" fill="#0068FF"/>
<path d="M153.156 89.3001C153.14 93.5503 151.442 97.6216 148.433 100.624C145.423 103.627 141.348 105.317 137.096 105.324C132.855 105.305 128.793 103.609 125.798 100.607C122.804 97.6044 121.118 93.5399 121.111 89.3001C121.103 87.1819 121.519 85.0836 122.333 83.1281C123.147 81.1725 124.344 79.399 125.852 77.9116C127.327 76.4284 129.082 75.2524 131.014 74.4515C132.947 73.6507 135.019 73.2409 137.111 73.2459C141.363 73.2655 145.435 74.9637 148.44 77.9706C151.445 80.9775 153.14 85.0496 153.156 89.3001Z" fill="#0068FF"/>
<path d="M83.8612 89.1808C83.8552 92.3473 82.9118 95.4413 81.1497 98.0727C79.3877 100.704 76.8859 102.755 73.9596 103.968C71.0334 105.18 67.8136 105.5 64.706 104.886C61.5984 104.272 58.7421 102.752 56.4971 100.518C54.252 98.2845 52.7187 95.4363 52.0903 92.3327C51.4618 89.2291 51.7664 86.009 52.9657 83.0781C54.165 80.1473 56.2053 77.6369 58.8295 75.8633C61.4537 74.0897 64.5443 73.1324 67.7119 73.1118C69.815 73.0846 71.9024 73.478 73.8511 74.269C75.7999 75.0601 77.5708 76.2326 79.0596 77.7178C80.5825 79.2131 81.7917 80.9973 82.6161 82.9656C83.4406 84.9339 83.8639 87.0469 83.8612 89.1808Z" fill="#0068FF"/>
<path d="M118.576 89.3C118.561 92.4767 117.606 95.578 115.83 98.2127C114.055 100.847 111.539 102.898 108.599 104.105C105.66 105.311 102.428 105.621 99.313 104.995C96.1975 104.368 93.3374 102.834 91.0934 100.584C89.2396 98.7092 87.8762 96.4068 87.1237 93.8802C86.3711 91.3536 86.2526 88.6806 86.7784 86.0974C87.3043 83.5141 88.4585 81.1001 90.1389 79.0684C91.8194 77.0368 93.9745 75.4501 96.4139 74.4485C98.8533 73.4469 101.502 73.0612 104.126 73.3255C106.75 73.5898 109.268 74.4959 111.458 75.9638C113.649 77.4317 115.444 79.4163 116.685 81.7422C117.927 84.0681 118.576 86.6638 118.576 89.3Z" fill="#0068FF"/>
<path d="M270.317 93.4738C275.503 74.5286 282.061 55.9857 289.94 37.9922H326.235C334.199 56.0273 340.818 74.6266 346.038 93.6378C351.293 112.109 355.181 130.942 357.669 149.984H333.363C332.2 142.113 330.808 134.471 329.188 127.058H286.988C285.606 134.014 284.214 141.656 282.813 149.984H258.507C261.104 130.892 265.051 112.008 270.317 93.4738ZM325.37 107.098C321.807 90.8302 316.93 74.8778 310.787 59.3978H305.389C299.25 74.8634 294.431 90.8204 290.984 107.098H325.37Z" fill="black"/>
<path d="M365.483 69.9217L367.57 59.4872L356.804 60.6946L356.625 49.4105L356.804 37.9475H406.475C419.398 37.9475 429.528 41.3064 436.865 48.0242C444.201 54.742 447.85 64.1181 447.81 76.1526C447.81 87.4914 444.276 96.5446 437.208 103.312C430.14 110.08 420.129 113.93 407.176 114.865L389.282 116.251V149.939H365.423L365.483 69.9217ZM405.61 94.7557C411.515 94.2986 416.058 92.4453 419.239 89.1957C420.866 87.4563 422.126 85.4082 422.946 83.1729C423.765 80.9375 424.128 78.5604 424.011 76.1824C424.011 70.6174 422.42 66.3045 419.239 63.2437C416.048 60.173 411.575 58.6376 405.819 58.6376H389.282V95.9035L405.61 94.7557Z" fill="black"/>
<path d="M452.492 129.145L476.634 130.009V57.9966L452.492 58.8612L453.193 37.9922H524.232L524.918 58.8612L500.597 57.9966V130.039L524.903 129.175L524.217 150.044H453.193L452.492 129.145Z" fill="black"/>
<path d="M552.624 143.649C547.236 137.686 544.542 128.166 544.542 115.088V84.53L528.05 86.3188V64.5555H545.944L544.452 39.3785H569.638L566.865 64.5555H602.474C602.959 68.067 603.188 71.6091 603.16 75.1539C603.184 78.8669 602.954 82.5773 602.474 86.2592L568.072 84.0083V113.821C568.072 120.062 569.38 124.663 571.994 127.624C574.609 130.586 578.516 132.076 583.715 132.096C590.746 131.902 597.71 130.672 604.382 128.444C605.651 133.942 606.578 139.512 607.156 145.124C602.326 147.466 597.263 149.295 592.05 150.58C586.998 151.882 581.804 152.553 576.587 152.578C566 152.578 558.012 149.601 552.624 143.649Z" fill="black"/>
<path d="M630.329 147.032C623.785 143.39 618.466 137.892 615.044 131.232C611.499 123.712 609.661 115.501 609.661 107.188C609.661 98.8744 611.499 90.6639 615.044 83.1437C618.446 76.488 623.772 71.0087 630.329 67.4174C637.503 63.825 645.417 61.9545 653.442 61.9545C661.466 61.9545 669.38 63.825 676.555 67.4174C683.092 71.0058 688.389 76.4883 691.75 83.1437C695.237 90.68 697.043 98.8842 697.043 107.188C697.043 115.491 695.237 123.695 691.75 131.232C688.37 137.893 683.08 143.394 676.555 147.032C669.397 150.682 661.477 152.585 653.442 152.585C645.407 152.585 637.486 150.682 630.329 147.032ZM638.321 126.163C640.121 128.348 642.407 130.083 644.995 131.229C647.584 132.376 650.405 132.902 653.233 132.767C659.715 132.767 664.78 130.536 668.428 126.074C672.076 121.612 673.901 115.217 673.901 106.89C673.901 98.6712 672.076 92.3906 668.428 88.0478C664.78 83.7051 659.715 81.5387 653.233 81.5487C646.871 81.5487 641.9 83.7449 638.321 88.1373C634.743 92.5297 632.943 98.8948 632.923 107.232C632.933 115.481 634.738 121.801 638.336 126.193L638.321 126.163Z" fill="black"/>
<path d="M722.393 147.032C715.849 143.39 710.531 137.892 707.109 131.232C703.564 123.712 701.726 115.501 701.726 107.188C701.726 98.8744 703.564 90.6639 707.109 83.1437C710.511 76.488 715.836 71.0087 722.393 67.4174C729.568 63.825 737.482 61.9545 745.506 61.9545C753.531 61.9545 761.445 63.825 768.619 67.4174C775.156 71.0058 780.454 76.4883 783.814 83.1437C787.302 90.68 789.108 98.8842 789.108 107.188C789.108 115.491 787.302 123.695 783.814 131.232C780.435 137.893 775.144 143.394 768.619 147.032C761.462 150.682 753.541 152.585 745.506 152.585C737.471 152.585 729.551 150.682 722.393 147.032ZM730.371 126.163C732.173 128.346 734.459 130.078 737.047 131.225C739.635 132.371 742.455 132.899 745.283 132.767C751.764 132.767 756.829 130.536 760.478 126.074C764.126 121.612 765.975 115.227 766.025 106.919C766.025 98.701 764.201 92.4204 760.552 88.0777C756.904 83.735 751.839 81.5686 745.357 81.5785C742.531 81.4439 739.711 81.9691 737.123 83.1127C734.535 84.2564 732.249 85.9869 730.446 88.1671C726.867 92.5695 725.072 98.9345 725.062 107.262C725.053 115.59 726.822 121.9 730.371 126.193V126.163Z" fill="black"/>
<path d="M791.852 128.966L810.447 130.457V50.5434C802.683 51.8154 796.658 52.9136 792.374 53.8377C792.15 48.7547 792.031 44.9833 792.031 42.5536C792.031 39.9003 792.15 36.1289 792.374 31.2694C798.746 30.8123 806.967 30.5788 817.038 30.5688C824.444 30.5688 829.886 30.6285 833.366 30.7477V130.755L851.26 129.011L851.081 150.029H792.031L791.852 128.966Z" fill="black"/>
<path d="M900.051 118.204C895.099 121.78 889.737 124.753 884.08 127.058V149.984H861.146V50.6776L850.902 51.885C850.673 44.7101 850.559 39.7412 850.559 36.9786V31.1651C856.116 30.708 862.657 30.4744 870.183 30.4645C876.545 30.4645 881.177 30.5837 884.08 30.8222V105.354C891.351 100.181 897.693 93.8157 902.839 86.5275C907.532 79.893 910.946 72.4415 912.905 64.5555C918.004 64.3269 921.981 64.2126 924.834 64.2126C927.816 64.2126 931.887 64.3319 936.987 64.5555C935.302 71.7403 932.643 78.6612 929.084 85.1263C925.292 92.1768 920.655 98.7392 915.276 104.669C925 119.283 933.93 134.41 942.027 149.984H915.141C909.365 137.254 904.335 126.66 900.051 118.204Z" fill="black"/>
<path d="M944.159 128.966L961.531 130.457V84.2467L945.039 87.3771C944.681 83.5462 944.517 79.7898 944.517 76.093C944.517 72.3962 944.681 68.5652 945.039 64.9728C951.292 64.3865 958.872 64.0983 967.779 64.1082C971.497 64.1082 977.059 64.2225 984.466 64.4511V130.606L1000.14 128.966L999.959 149.984H944.338L944.159 128.966ZM958.758 49.2764C957.379 48.0717 956.288 46.5731 955.566 44.8911C954.843 43.2091 954.507 41.3864 954.583 39.5574C954.496 37.7008 954.826 35.8483 955.549 34.1357C956.271 32.4231 957.368 30.8937 958.758 29.6595C961.531 27.2348 965.354 26.0224 970.225 26.0224C974.282 25.7901 978.278 27.088 981.424 29.6595C982.786 30.9107 983.857 32.4457 984.56 34.156C985.263 35.8663 985.582 37.7103 985.494 39.5574C985.571 41.3768 985.246 43.1908 984.543 44.8705C983.839 46.5503 982.774 48.0545 981.424 49.2764C978.28 51.8533 974.284 53.1565 970.225 52.9284C965.314 52.9284 961.492 51.7111 958.758 49.2764Z" fill="black"/>
<path d="M1026.4 143.649C1021.01 137.686 1018.32 128.166 1018.33 115.088V84.53L1001.82 86.3188V64.5555H1019.72L1018.23 39.3785H1043.38L1040.61 64.5555H1076.19C1076.68 68.0666 1076.91 71.6087 1076.89 75.1539C1076.91 78.8872 1076.68 82.6175 1076.19 86.3188L1041.8 84.0679V113.881C1041.8 120.121 1043.1 124.723 1045.71 127.684C1048.31 130.645 1052.22 132.136 1057.43 132.156C1064.46 131.962 1071.42 130.731 1078.1 128.504C1079.36 134.002 1080.29 139.573 1080.88 145.184C1076.04 147.504 1070.97 149.312 1065.75 150.58C1060.7 151.882 1055.51 152.553 1050.3 152.578C1039.72 152.578 1031.76 149.601 1026.4 143.649Z" fill="black"/>
</svg>
