<svg xmlns="http://www.w3.org/2000/svg" viewBox="0 0 782 158" width="782" height="158" fill="none"><path fill="#FF3465" d="M158 11.349v63.204c0 10.189-12.266 15.325-19.477 8.118l-1.657-1.657a1.634 1.634 0 0 1-.498-1.16V42.081c0-11.266-9.199-20.46-20.554-20.46h-37.71c-.415 0-.83-.166-1.16-.498l-1.658-1.656c-.58-.58-1.078-1.16-1.492-1.823C70.81 13.088 71.639 7.29 75.12 3.562 77.109 1.408 79.927 0 83.325 0h63.32c1.575 0 3.067.331 4.393.911a11.186 11.186 0 0 1 3.647 2.402A11.405 11.405 0 0 1 158 11.35Z"/><path fill="#FF89A6" d="M128.081 42.163v67.594c0 10.852-13.095 16.319-20.803 8.615l-.331-.331a1.634 1.634 0 0 1-.498-1.16V72.895c0-11.68-9.614-21.289-21.3-21.289H41.057c-.415 0-.829-.166-1.16-.497l-.332-.331c-7.708-7.704-2.32-20.875 8.62-20.875h67.713c6.713 0 12.183 5.467 12.183 12.26Z"/><path fill="#FFC2D1" d="M98.161 144.964V72.896a12.978 12.978 0 0 0-13.012-13.005H13.043c-11.603 0-17.405 13.999-9.2 22.2l72.106 72.068c8.122 8.2 22.212 2.402 22.212-9.195Z"/><path fill="#151515" d="M626.957 119.331c-11.713 0-18.629-6.582-18.629-16.51 0-10.04 7.474-16.286 20.302-17.29l17.179-1.338V82.63c0-9.147-5.466-12.382-12.829-12.382-8.812 0-13.832 3.904-13.832 10.486h-9.147c0-11.378 9.37-18.852 23.426-18.852 13.497 0 22.644 7.139 22.644 21.863v34.246h-8.924l-1.115-8.812c-2.789 6.246-10.263 10.151-19.075 10.151Zm3.012-8.143c9.928 0 15.951-6.47 15.951-16.733v-2.9l-13.943 1.115c-9.259.893-13.052 4.462-13.052 9.817 0 5.8 4.239 8.701 11.044 8.701ZM665.015 142.421V63.445h9.482l.781 9.816c3.681-7.474 11.043-11.378 19.744-11.378 15.617 0 25.322 11.712 25.322 28.445 0 16.621-9.147 29.114-25.322 29.114-8.701 0-15.952-3.681-19.521-10.374v33.353h-10.486Zm10.597-51.647c0 11.155 6.47 19.187 17.179 19.187s17.067-8.032 17.067-19.187c0-11.266-6.358-19.298-17.067-19.298s-17.179 7.92-17.179 19.298ZM726.324 142.421V63.445h9.481l.781 9.816c3.681-7.474 11.044-11.378 19.744-11.378 15.617 0 25.322 11.712 25.322 28.445 0 16.621-9.147 29.114-25.322 29.114-8.7 0-15.951-3.681-19.521-10.374v33.353h-10.485Zm10.597-51.647c0 11.155 6.47 19.187 17.178 19.187 10.709 0 17.067-8.032 17.067-19.187 0-11.266-6.358-19.298-17.067-19.298-10.708 0-17.178 7.92-17.178 19.298ZM500.951 117.992h13.609V88.32c0-8.924 5.131-14.724 13.498-14.724 7.027 0 11.601 4.462 11.601 13.72v30.676h13.609v-33.91c0-14.279-7.139-22.868-20.971-22.868-7.474 0-14.167 3.235-17.625 8.812l-1.116-7.139h-12.605v55.105ZM415.818 43.59c0 4.573 3.681 8.254 8.367 8.254 4.462 0 8.143-3.681 8.143-8.255a8.117 8.117 0 0 0-8.143-8.143c-4.686 0-8.367 3.57-8.367 8.143ZM417.38 62.887v55.106h13.609V62.887H417.38ZM355.609 90.329c0-17.067 11.267-29.115 27.553-29.115 15.059 0 25.322 8.367 26.772 21.64h-13.609c-1.562-6.246-6.135-9.48-12.605-9.48-8.701 0-14.502 6.58-14.502 16.955 0 10.374 5.355 16.844 14.056 16.844 6.804 0 11.601-3.347 13.051-9.37h13.72c-1.673 12.828-12.382 21.64-26.771 21.64-16.733 0-27.665-11.601-27.665-29.114ZM334.305 74.265h.027v43.728h13.609V62.887h-13.636v11.378ZM333.104 43.143c0 4.574 3.459 8.143 8.032 8.143 4.574 0 8.143-3.57 8.143-8.143S345.71 35 341.136 35c-4.573 0-8.032 3.57-8.032 8.143Z"/><path fill="#151515" fill-rule="evenodd" d="M201.262 90.44c0 17.067 11.489 29.003 27.887 29.003 14.39 0 24.429-7.251 26.772-19.298h-12.605c-1.562 5.242-6.47 8.143-13.944 8.143-9.035 0-14.167-4.909-15.171-14.613l41.497-.112v-4.127c0-17.179-10.486-28.222-26.995-28.222-16.175 0-27.441 11.936-27.441 29.226Zm13.274-5.466c1.339-8.255 6.247-12.605 14.278-12.605 8.143 0 13.386 5.02 13.386 12.605h-27.664Z" clip-rule="evenodd"/><path fill="#151515" d="M263.466 62.887h-.012v11.378h.012v43.728h13.498V74.265h13.288V62.887h-13.288v-6.693c0-5.466 1.561-9.035 8.477-9.035h4.797V35.558c-2.343-.447-4.908-.558-7.028-.558-11.935 0-19.744 6.247-19.744 21.194v6.693ZM299.27 74.265h-.01V62.887h.01v-6.693c0-14.947 7.809-21.194 18.964-21.194 2.231 0 4.685.111 7.027.558v11.6h-4.685c-6.135 0-7.808 3.57-7.808 9.036v6.693h12.509v11.378h-12.509v43.728H299.27V74.265ZM562.286 80.178h-.011v11.378h.011v6.693c0 14.947 7.808 21.194 18.963 21.194 2.231 0 4.685-.112 7.028-.558v-11.601h-4.685c-6.135 0-7.809-3.57-7.809-9.035V74.24h12.509V62.862h-12.509V45.714h-13.497v34.464Z"/><path fill="#151515" fill-rule="evenodd" d="M466.578 119.443c-16.398 0-27.888-11.936-27.888-29.003 0-17.29 11.267-29.226 27.442-29.226 16.509 0 26.994 11.043 26.994 28.222v4.127l-41.496.112c1.004 9.704 6.135 14.613 15.171 14.613 7.474 0 12.382-2.901 13.943-8.143h12.606c-2.343 12.047-12.382 19.298-26.772 19.298Zm-.335-47.074c-8.031 0-12.94 4.35-14.278 12.605h27.664c0-7.586-5.243-12.605-13.386-12.605Z" clip-rule="evenodd"/></svg>
