<svg width="782" height="158" viewBox="0 0 782 158" fill="none" xmlns="http://www.w3.org/2000/svg">
<path d="M158 11.3486V74.5529C158 84.7418 145.734 89.8776 138.523 82.6709L136.866 81.0141C136.534 80.6828 136.368 80.2686 136.368 79.8544V42.081C136.368 30.8152 127.169 21.6203 115.814 21.6203H78.1035C77.6891 21.6203 77.2747 21.4547 76.9432 21.1233L75.2856 19.4666C74.7054 18.8867 74.2081 18.3069 73.7937 17.6442C70.81 13.0882 71.6388 7.28961 75.1198 3.56197C77.1089 1.40822 79.9268 0 83.3249 0H146.645C148.22 0 149.712 0.331346 151.038 0.911202C152.447 1.49106 153.69 2.31942 154.685 3.31346C156.757 5.38437 158 8.28365 158 11.3486Z" fill="#FF3465"/>
<path d="M128.081 42.1626V109.757C128.081 120.609 114.986 126.076 107.278 118.372L106.947 118.041C106.615 117.71 106.449 117.295 106.449 116.881V72.895C106.449 61.215 96.8352 51.606 85.1491 51.606H41.0568C40.6424 51.606 40.228 51.4403 39.8965 51.109L39.565 50.7776C31.8571 43.0738 37.2444 29.9028 48.1845 29.9028H115.898C122.611 29.9028 128.081 35.37 128.081 42.1626Z" fill="#FF89A6"/>
<path d="M98.161 144.964V72.896C98.161 65.6892 92.3594 59.8906 85.1488 59.8906H13.0431C1.43983 59.8906 -4.36178 73.89 3.84336 82.0908L75.9491 154.159C84.0714 162.359 98.161 156.561 98.161 144.964Z" fill="#FFC2D1"/>
<path d="M626.957 119.331C615.244 119.331 608.328 112.749 608.328 102.821C608.328 92.7819 615.802 86.5352 628.63 85.5312L645.809 84.1927V82.631C645.809 73.4839 640.343 70.249 632.98 70.249C624.168 70.249 619.148 74.1532 619.148 80.7346H610.001C610.001 69.3566 619.371 61.8828 633.427 61.8828C646.924 61.8828 656.071 69.022 656.071 83.7465V117.992H647.147L646.032 109.18C643.243 115.426 635.769 119.331 626.957 119.331ZM629.969 111.188C639.897 111.188 645.92 104.718 645.92 94.4552V91.5549L631.977 92.6704C622.718 93.5628 618.925 97.1324 618.925 102.487C618.925 108.287 623.164 111.188 629.969 111.188Z" fill="#151515"/>
<path d="M665.015 142.421V63.4445H674.497L675.278 73.2608C678.959 65.787 686.321 61.8828 695.022 61.8828C710.639 61.8828 720.344 73.5955 720.344 90.3279C720.344 106.949 711.197 119.442 695.022 119.442C686.321 119.442 679.07 115.761 675.501 109.068V142.421H665.015ZM675.612 90.7741C675.612 101.929 682.082 109.961 692.791 109.961C703.5 109.961 709.858 101.929 709.858 90.7741C709.858 79.5076 703.5 71.476 692.791 71.476C682.082 71.476 675.612 79.396 675.612 90.7741Z" fill="#151515"/>
<path d="M726.324 142.421V63.4445H735.805L736.586 73.2608C740.267 65.787 747.63 61.8828 756.33 61.8828C771.947 61.8828 781.652 73.5955 781.652 90.3279C781.652 106.949 772.505 119.442 756.33 119.442C747.63 119.442 740.379 115.761 736.809 109.068V142.421H726.324ZM736.921 90.7741C736.921 101.929 743.391 109.961 754.099 109.961C764.808 109.961 771.166 101.929 771.166 90.7741C771.166 79.5076 764.808 71.476 754.099 71.476C743.391 71.476 736.921 79.396 736.921 90.7741Z" fill="#151515"/>
<path d="M500.951 117.992H514.56V88.3203C514.56 79.3964 519.691 73.5958 528.058 73.5958C535.085 73.5958 539.659 78.0578 539.659 87.3164V117.992H553.268V84.0815C553.268 69.8032 546.129 61.2139 532.297 61.2139C524.823 61.2139 518.13 64.4488 514.672 70.0263L513.556 62.8871H500.951V117.992Z" fill="#151515"/>
<path d="M415.818 43.5894C415.818 48.1629 419.499 51.844 424.185 51.844C428.647 51.844 432.328 48.1629 432.328 43.5894C432.328 39.0159 428.647 35.4463 424.185 35.4463C419.499 35.4463 415.818 39.0159 415.818 43.5894Z" fill="#151515"/>
<path d="M417.38 62.8874V117.993H430.989V62.8874H417.38Z" fill="#151515"/>
<path d="M355.609 90.3287C355.609 73.2617 366.876 61.2144 383.162 61.2144C398.221 61.2144 408.484 69.5805 409.934 82.8549H396.325C394.763 76.6081 390.19 73.3732 383.72 73.3732C375.019 73.3732 369.218 79.9546 369.218 90.3287C369.218 100.703 374.573 107.173 383.274 107.173C390.078 107.173 394.875 103.826 396.325 97.8025H410.045C408.372 110.631 397.663 119.443 383.274 119.443C366.541 119.443 355.609 107.842 355.609 90.3287Z" fill="#151515"/>
<path d="M334.305 74.2653H334.332V117.993H347.941V62.8873H334.305V74.2653Z" fill="#151515"/>
<path d="M333.104 43.1431C333.104 47.7166 336.563 51.2862 341.136 51.2862C345.71 51.2862 349.279 47.7166 349.279 43.1431C349.279 38.5696 345.71 35 341.136 35C336.563 35 333.104 38.5696 333.104 43.1431Z" fill="#151515"/>
<path fill-rule="evenodd" clip-rule="evenodd" d="M201.262 90.4398C201.262 107.507 212.751 119.443 229.149 119.443C243.539 119.443 253.578 112.192 255.921 100.145H243.316C241.754 105.387 236.846 108.288 229.372 108.288C220.337 108.288 215.205 103.379 214.201 93.6747L255.698 93.5631V89.4358C255.698 72.2572 245.212 61.2139 228.703 61.2139C212.528 61.2139 201.262 73.1496 201.262 90.4398ZM214.536 84.9738C215.875 76.7192 220.783 72.3688 228.814 72.3688C236.957 72.3688 242.2 77.3885 242.2 84.9738H214.536Z" fill="#151515"/>
<path d="M263.466 62.8873H263.454V74.2653H263.466V117.993H276.964V74.2653H290.252V62.8873H276.964V56.1943C276.964 50.7284 278.525 47.1589 285.441 47.1589H290.238V35.5577C287.895 35.1115 285.33 35 283.21 35C271.275 35 263.466 41.2468 263.466 56.1943V62.8873Z" fill="#151515"/>
<path d="M299.27 74.2653H299.26V62.8873H299.27V56.1943C299.27 41.2468 307.079 35 318.234 35C320.465 35 322.919 35.1115 325.261 35.5577V47.1589H320.576C314.441 47.1589 312.768 50.7284 312.768 56.1943V62.8873H325.277V74.2653H312.768V117.993H299.27V74.2653Z" fill="#151515"/>
<path d="M562.286 80.1776H562.275V91.5556H562.286V98.2485C562.286 113.196 570.094 119.443 581.249 119.443C583.48 119.443 585.934 119.331 588.277 118.885V107.284H583.592C577.457 107.284 575.783 103.714 575.783 98.2485V74.2402H588.292V62.8621H575.783V45.7145H562.286V80.1776Z" fill="#151515"/>
<path fill-rule="evenodd" clip-rule="evenodd" d="M466.578 119.443C450.18 119.443 438.69 107.507 438.69 90.4398C438.69 73.1496 449.957 61.2139 466.132 61.2139C482.641 61.2139 493.126 72.2572 493.126 89.4358V93.5631L451.63 93.6747C452.634 103.379 457.765 108.288 466.801 108.288C474.275 108.288 479.183 105.387 480.744 100.145H493.35C491.007 112.192 480.968 119.443 466.578 119.443ZM466.243 72.3688C458.212 72.3688 453.303 76.7192 451.965 84.9738H479.629C479.629 77.3885 474.386 72.3688 466.243 72.3688Z" fill="#151515"/>
</svg>
