<svg xmlns="http://www.w3.org/2000/svg" viewBox="0 0 116 32" width="116" height="32" fill="none" class="w-28 h-auto"><path fill="#2563EB" d="M33.57 30.297v-19.5h3.877v2.382h.176c.172-.382.422-.77.748-1.164.332-.4.763-.732 1.292-.997.536-.27 1.2-.406 1.995-.406a5.33 5.33 0 0 1 2.862.813c.874.535 1.573 1.345 2.096 2.428.523 1.077.785 2.428.785 4.053 0 1.582-.256 2.918-.767 4.007-.505 1.084-1.194 1.905-2.068 2.465-.868.554-1.84.831-2.918.831-.763 0-1.412-.126-1.948-.378a4.029 4.029 0 0 1-1.302-.951 4.831 4.831 0 0 1-.775-1.173h-.12v7.59H33.57Zm3.85-12.41c0 .844.117 1.58.35 2.207.234.628.573 1.117 1.016 1.468.443.345.982.517 1.616.517.64 0 1.182-.175 1.625-.526.443-.357.779-.85 1.006-1.477.234-.634.351-1.364.351-2.188 0-.819-.114-1.54-.341-2.16-.228-.623-.564-1.109-1.007-1.46-.443-.35-.988-.526-1.634-.526-.64 0-1.182.17-1.625.508-.437.338-.773.819-1.006 1.44-.234.622-.351 1.354-.351 2.198Zm11.823 7.092V10.797h3.813v2.474h.148c.258-.88.692-1.545 1.301-1.994.61-.456 1.312-.683 2.106-.683.197 0 .409.012.637.037.227.024.428.058.6.101v3.49a5.126 5.126 0 0 0-.767-.147 6.883 6.883 0 0 0-.895-.065c-.579 0-1.096.126-1.551.378-.45.247-.807.591-1.071 1.034-.259.444-.388.954-.388 1.533v8.024h-3.933Zm15.661.277c-1.458 0-2.714-.296-3.767-.887a6.07 6.07 0 0 1-2.419-2.53c-.566-1.095-.85-2.391-.85-3.887 0-1.459.284-2.739.85-3.84.566-1.102 1.364-1.961 2.392-2.577 1.034-.615 2.246-.923 3.637-.923a7.4 7.4 0 0 1 2.613.453c.813.295 1.52.741 2.124 1.338.61.597 1.083 1.348 1.422 2.253.338.899.507 1.951.507 3.158v1.08H59.438v-2.437h8.273c0-.567-.123-1.068-.37-1.505a2.646 2.646 0 0 0-1.024-1.025c-.43-.253-.933-.379-1.505-.379-.597 0-1.126.139-1.588.416-.456.27-.813.637-1.071 1.098-.259.456-.391.964-.397 1.524v2.317c0 .702.13 1.308.388 1.82.264.51.637.904 1.117 1.181s1.05.416 1.708.416a3.72 3.72 0 0 0 1.2-.185 2.49 2.49 0 0 0 .933-.554 2.41 2.41 0 0 0 .59-.905l3.638.24a4.967 4.967 0 0 1-1.135 2.29c-.566.646-1.299 1.15-2.198 1.514-.892.357-1.923.536-3.093.536Zm12.23-19.187v18.91H73.2V6.069h3.933Zm2.37 18.91V10.797h3.933v14.182h-3.933Zm1.976-16.01a2.137 2.137 0 0 1-1.505-.582c-.412-.394-.618-.865-.618-1.413 0-.541.206-1.006.618-1.394.419-.394.92-.59 1.505-.59.585 0 1.084.196 1.496.59.418.388.628.853.628 1.394 0 .548-.21 1.019-.628 1.413a2.105 2.105 0 0 1-1.496.582Zm8.261 7.81v8.2h-3.933V10.797h3.749v2.502h.166a3.957 3.957 0 0 1 1.579-1.957c.738-.487 1.634-.73 2.687-.73.984 0 1.843.216 2.576.646.732.431 1.302 1.047 1.708 1.847.406.794.61 1.742.61 2.844v9.03h-3.934V16.65c.006-.868-.215-1.546-.665-2.032-.45-.492-1.068-.738-1.856-.738-.53 0-.997.113-1.403.341-.4.228-.714.56-.942.997-.221.431-.335.951-.341 1.56Zm17.924 8.477c-1.459 0-2.714-.296-3.767-.887a6.071 6.071 0 0 1-2.419-2.53c-.566-1.095-.849-2.391-.849-3.887 0-1.459.283-2.739.849-3.84.566-1.102 1.363-1.961 2.391-2.577 1.035-.615 2.247-.923 3.638-.923.936 0 1.807.15 2.613.453a5.8 5.8 0 0 1 2.124 1.338c.609.597 1.083 1.348 1.422 2.253.338.899.507 1.951.507 3.158v1.08h-11.975v-2.437h8.273c0-.567-.123-1.068-.369-1.505a2.651 2.651 0 0 0-1.025-1.025c-.431-.253-.933-.379-1.505-.379-.597 0-1.127.139-1.588.416-.456.27-.813.637-1.071 1.098a3.096 3.096 0 0 0-.397 1.524v2.317c0 .702.129 1.308.388 1.82.264.51.637.904 1.117 1.181s1.049.416 1.708.416c.437 0 .837-.062 1.2-.185s.674-.308.933-.554c.258-.246.455-.548.591-.905l3.637.24a4.964 4.964 0 0 1-1.135 2.29c-.567.646-1.299 1.15-2.198 1.514-.892.357-1.923.536-3.093.536Z"/><path stroke="#2563EB" stroke-width="2" d="M1 28.979v-13c0-6.628 5.373-12 12-12s12 5.372 12 12c0 6.627-5.373 12-12 12h-1"/><path stroke="#2563EB" stroke-width="2" d="M5 28.979v-12.84c0-4.507 3.582-8.16 8-8.16s8 3.653 8 8.16c0 4.506-3.582 8.16-8 8.16h-1"/><circle cx="13" cy="16" r="5" fill="#2563EB"/></svg>
