<svg xmlns="http://www.w3.org/2000/svg" fill="none" viewBox="0 0 176 28"><path fill="#000" d="M170.74 21.2c-1 0-1.88-.2-2.62-.6a4.36 4.36 0 0 1-1.74-1.66c-.4-.72-.6-1.57-.6-2.54 0-.99.2-1.83.6-2.54.41-.72.99-1.27 1.74-1.66.74-.4 1.62-.6 2.64-.6 1.01 0 1.87.19 2.58.56.72.36 1.26.9 1.64 1.6a5.24 5.24 0 0 1 .54 2.9l-.02.32h-8.24v-1.6h5.98l-.7.92c.05-.08.1-.19.14-.32.05-.15.08-.27.08-.36 0-.45-.09-.84-.26-1.16-.16-.32-.4-.57-.7-.76-.31-.19-.67-.28-1.08-.28-.51 0-.94.11-1.28.34-.34.21-.6.54-.78.98-.18.43-.27.96-.28 1.6 0 .61.08 1.13.26 1.56a2.13 2.13 0 0 0 2.12 1.32c.57 0 1.06-.1 1.46-.32a2.7 2.7 0 0 0 1.02-1l2.26.7a4.86 4.86 0 0 1-1.92 1.96c-.79.43-1.74.64-2.84.64Zm-9.58-5.8a2.3 2.3 0 0 0-.35-1.4c-.25-.32-.63-.48-1.16-.48-.37 0-.69.08-.97.24-.28.15-.49.36-.64.64-.14.28-.22.61-.22 1V21h-2.6v-9.2h2.6v1.4a2.95 2.95 0 0 1 2.78-1.6c1.1 0 1.91.31 2.44.94.54.61.8 1.47.8 2.58V21h-2.68v-5.6ZM141.47 14c0 .9.19 1.69.56 2.38.38.7.89 1.24 1.54 1.64.66.4 1.42.6 2.28.6a4.1 4.1 0 0 0 3.8-2.24c.38-.7.56-1.49.56-2.38 0-.9-.18-1.69-.54-2.38a4.1 4.1 0 0 0-3.82-2.24c-.86 0-1.62.2-2.28.6-.65.4-1.16.95-1.54 1.64-.37.7-.56 1.49-.56 2.38Zm-3.02 0c0-1.07.19-2.04.56-2.92a6.96 6.96 0 0 1 3.9-3.82 7.9 7.9 0 0 1 2.94-.54 7.8 7.8 0 0 1 2.94.54 6.85 6.85 0 0 1 3.9 3.82c.38.88.56 1.85.56 2.92 0 1.05-.18 2.03-.56 2.94a6.93 6.93 0 0 1-3.88 3.9c-.89.36-1.88.54-2.96.54a7.2 7.2 0 0 1-6.86-4.44 7.9 7.9 0 0 1-.54-2.94Zm-6.49-2.2h5.67v2.18h-5.67V11.8Zm1.57-3.2h2.5V21h-2.5V8.6ZM121 16.4c0-.96.21-1.8.65-2.52a4.7 4.7 0 0 1 1.82-1.68c.78-.4 1.65-.6 2.62-.6.97 0 1.84.2 2.6.6a4.62 4.62 0 0 1 2.5 4.2c0 .95-.22 1.79-.68 2.52a4.52 4.52 0 0 1-1.82 1.68c-.76.4-1.63.6-2.6.6-.97 0-1.84-.2-2.62-.6a4.7 4.7 0 0 1-1.82-1.68 4.8 4.8 0 0 1-.66-2.52Zm2.63 0c0 .52.1.98.32 1.38.23.39.53.7.9.92.38.21.79.32 1.24.32.45 0 .87-.1 1.24-.32.38-.23.67-.53.88-.92.23-.4.34-.86.34-1.38 0-.52-.11-.98-.34-1.38-.21-.4-.5-.7-.88-.92a2.45 2.45 0 0 0-1.24-.32 2.4 2.4 0 0 0-2.14 1.24c-.21.4-.32.86-.32 1.38Zm-10.51-11V21h-2.6V5.4h2.6Zm3.34 10a2.3 2.3 0 0 0-.36-1.4c-.23-.32-.62-.48-1.16-.48-.36 0-.68.08-.96.24-.28.15-.5.36-.64.64-.15.28-.22.61-.22 1h-.52c0-.73.12-1.4.36-1.98.25-.59.62-1.05 1.12-1.4.5-.35 1.1-.52 1.82-.52s1.31.13 1.78.4c.46.27.81.67 1.04 1.2.22.52.34 1.16.34 1.92V21h-2.6v-5.6Zm-14.27 2.42c.39.36.75.65 1.08.88.33.21.65.37.94.48.3.1.6.16.86.16.35 0 .61-.07.8-.22a.8.8 0 0 0 .28-.64.81.81 0 0 0-.24-.6 1.86 1.86 0 0 0-.66-.46c-.3-.13-.67-.27-1.12-.42-.43-.16-.84-.35-1.24-.56-.4-.23-.73-.52-1-.88a2.47 2.47 0 0 1-.38-1.42c0-.55.14-1 .44-1.38.3-.39.69-.67 1.18-.86a5.16 5.16 0 0 1 4.4.44c.39.21.72.47 1.02.76l-1.14 1.6a4.01 4.01 0 0 0-1.2-.88c-.45-.23-.9-.34-1.34-.34-.3 0-.53.06-.7.18-.16.1-.24.27-.24.5 0 .2.08.38.24.54.17.15.41.28.72.4a23.56 23.56 0 0 1 2.44 1.08c.42.23.77.51 1.02.86s.38.8.38 1.36c0 .92-.3 1.64-.9 2.16-.6.5-1.43.76-2.48.76a5.92 5.92 0 0 1-4.42-1.88l1.26-1.62ZM96.5 15.4a2.3 2.3 0 0 0-.36-1.4c-.24-.32-.63-.48-1.16-.48-.36 0-.68.08-.96.24-.28.15-.5.36-.64.64-.15.28-.22.61-.22 1V21h-2.6v-9.2h2.6v1.4a2.95 2.95 0 0 1 2.78-1.6c1.09 0 1.9.31 2.44.94.53.61.8 1.47.8 2.58V21H96.5v-5.6Zm-12.7 5.8c-1 0-1.87-.2-2.62-.6a4.35 4.35 0 0 1-1.74-1.66c-.4-.72-.6-1.57-.6-2.54 0-.99.2-1.83.6-2.54.42-.72 1-1.27 1.74-1.66.75-.4 1.63-.6 2.64-.6 1.02 0 1.88.19 2.58.56.72.36 1.27.9 1.64 1.6a5.25 5.25 0 0 1 .54 2.9c0 .13 0 .24-.02.32h-8.24v-1.6h5.98l-.7.92c.06-.08.1-.19.14-.32.06-.15.08-.27.08-.36 0-.45-.08-.84-.26-1.16-.16-.32-.4-.57-.7-.76-.3-.19-.66-.28-1.08-.28-.5 0-.93.11-1.28.34-.33.21-.6.54-.78.98-.17.43-.26.96-.28 1.6 0 .61.09 1.13.26 1.56a2.13 2.13 0 0 0 2.12 1.32c.58 0 1.06-.1 1.46-.32.42-.23.76-.56 1.02-1l2.26.7a4.86 4.86 0 0 1-1.92 1.96c-.78.43-1.73.64-2.84.64Zm-11.1 0c-1 0-1.86-.2-2.61-.6a4.35 4.35 0 0 1-1.74-1.66c-.4-.72-.6-1.57-.6-2.54 0-.99.2-1.83.6-2.54.41-.72 1-1.27 1.74-1.66.75-.4 1.63-.6 2.64-.6 1.01 0 1.87.19 2.58.56.72.36 1.27.9 1.64 1.6a5.25 5.25 0 0 1 .54 2.9c0 .13 0 .24-.02.32h-8.24v-1.6h5.98l-.7.92c.05-.08.1-.19.14-.32.05-.15.08-.27.08-.36 0-.45-.09-.84-.26-1.16-.16-.32-.4-.57-.7-.76-.3-.19-.67-.28-1.08-.28-.5 0-.93.11-1.28.34-.33.21-.6.54-.78.98-.17.43-.27.96-.28 1.6 0 .61.09 1.13.26 1.56a2.13 2.13 0 0 0 2.12 1.32c.57 0 1.06-.1 1.46-.32.41-.23.75-.56 1.02-1l2.26.7a4.86 4.86 0 0 1-1.92 1.96c-.79.43-1.73.64-2.84.64Zm-9.3-9.4V21h-2.53v-9.2h2.54Zm2.7 2.7a1.9 1.9 0 0 0-.53-.36c-.17-.1-.4-.14-.66-.14-.32 0-.6.09-.82.26-.23.17-.4.42-.52.74-.1.3-.16.68-.16 1.12l-.72-.72c0-.73.14-1.38.42-1.94.28-.57.65-1.03 1.1-1.36a2.28 2.28 0 0 1 2.34-.34c.3.12.55.3.74.54l-1.18 2.2Zm-13.06 1.9a2.6 2.6 0 0 0 2.68 2.68c.4 0 .8-.06 1.16-.18.38-.13.71-.3 1-.52.31-.23.54-.49.7-.78v2.66c-.32.3-.74.53-1.26.7-.5.16-1.1.24-1.78.24-.97 0-1.85-.2-2.64-.6a4.66 4.66 0 0 1-1.84-1.68 4.8 4.8 0 0 1-.66-2.52c0-.96.22-1.8.66-2.52a4.66 4.66 0 0 1 1.84-1.68c.8-.4 1.67-.6 2.64-.6.68 0 1.28.09 1.78.26.52.16.94.38 1.26.66v2.66c-.16-.3-.4-.55-.72-.76a3.51 3.51 0 0 0-2.14-.7 2.66 2.66 0 0 0-2.68 2.68Zm-12.51-.1c.3.52.62.97.96 1.36.36.39.76.69 1.18.9.43.21.89.32 1.38.32.58 0 1.04-.15 1.4-.44.36-.3.54-.7.54-1.2 0-.44-.11-.8-.34-1.06-.21-.27-.54-.5-.98-.7-.42-.21-.95-.44-1.58-.68-.33-.12-.72-.28-1.16-.48a6.4 6.4 0 0 1-1.22-.8 3.64 3.64 0 0 1-1.34-2.92c0-.8.2-1.49.6-2.06.42-.59.97-1.03 1.66-1.34.7-.32 1.5-.48 2.36-.48a5.28 5.28 0 0 1 4.94 3.02l-2.24 1.24a4.1 4.1 0 0 0-1.56-1.56A2.43 2.43 0 0 0 44 9.16c-.56 0-.98.13-1.26.4-.28.25-.42.55-.42.9s.12.65.34.92c.23.25.58.5 1.04.74.47.23 1.06.46 1.76.7.46.16.89.36 1.3.6.43.24.8.53 1.14.88a3.88 3.88 0 0 1 1.1 2.78 4.01 4.01 0 0 1-1.5 3.18c-.46.36-1 .63-1.58.82a6.03 6.03 0 0 1-4.22-.18 6.64 6.64 0 0 1-3.2-3.16l2.04-1.44Z"/><path stroke="#7C3AED" stroke-linecap="round" stroke-linejoin="round" stroke-width="2.67" d="M13.8 18a4 4 0 1 0 0-8 4 4 0 0 0 0 8ZM1.8 7.33V4.67A2.67 2.67 0 0 1 4.45 2h2.67m13.34 0h2.67a2.67 2.67 0 0 1 2.66 2.67v2.66m.01 13.34v2.66A2.67 2.67 0 0 1 23.12 26h-2.67M7.13 26H4.46a2.67 2.67 0 0 1-2.67-2.67v-2.66"/></svg>
