<svg xmlns="http://www.w3.org/2000/svg" xmlns:xlink="http://www.w3.org/1999/xlink" width="205" height="179"><defs><path id="a" d="M27.088 14.18c.005 7.3-5.881 13.238-13.182 13.296a13.306 13.306 0 0 1-9.42-3.856A13.294 13.294 0 0 1 13.8.884a12.992 12.992 0 0 1 9.365 3.801 13.267 13.267 0 0 1 3.922 9.496l.001-.001Z"/></defs><g fill="none" fill-rule="evenodd"><path fill="#0068FF" fill-rule="nonzero" d="M81.088 89.18c.005 7.3-5.881 13.238-13.182 13.296a13.306 13.306 0 0 1-9.42-3.856A13.294 13.294 0 0 1 67.8 75.884a12.992 12.992 0 0 1 9.365 3.801 13.267 13.267 0 0 1 3.922 9.496l.001-.001Z"/><g transform="translate(54 75)"><mask id="b" fill="#fff"><use xlink:href="#a"/></mask><g fill="#0068FF" fill-rule="nonzero" mask="url(#b)"><path d="M.56.884H.515v26.638H.56V.884Zm.507 0H.56v26.638h.507V.884Z"/><path d="M1.559.884h-.507v26.638h.507V.884Zm.507 0h-.507v26.638h.507V.884Zm.507 0h-.507v26.638h.507V.884Z"/><path d="M3.065.884h-.507v26.638h.507V.884Zm.507 0h-.507v26.638h.507V.884Z"/><path d="M4.064.884h-.507v26.638h.507V.884Zm.507 0h-.507v26.638h.507V.884Z"/><path d="M5.063.884h-.507v26.638h.507V.884Zm.507 0h-.507v26.638h.507V.884Z"/><path d="M6.062.884h-.507v26.638h.507V.884Zm.508 0h-.508v26.638h.507V.884h.001Z"/><path d="M7.076.884h-.507v26.638h.507z"/><path d="M7.568.884h-.507v26.638h.507V.884Zm.507 0h-.507v26.638h.507V.884Z"/><path d="M8.567.884H8.06v26.638h.507V.884Zm.507 0h-.507v26.638h.507V.884Z"/><path d="M9.566.884h-.507v26.638h.507zM10.073.884h-.507v26.638h.507V.884Zm.507 0h-.507v26.638h.507V.884Z"/><path d="M11.073.884h-.507v26.638h.507V.884Zm.507 0h-.507v26.638h.507V.884Z"/><path d="M12.072.884h-.507v26.638h.507zM12.579.884h-.507v26.638h.507z"/><path d="M13.07.884h-.506v26.638h.507V.884h-.001Zm.508 0h-.507v26.638h.507V.884Z"/><path d="M14.07.884h-.507v26.638h.507V.884Zm.507 0h-.507v26.638h.507V.884Zm.507 0h-.507v26.638h.507V.884Z"/><path d="M15.576.884h-.507v26.638h.507V.884Zm.507 0h-.507v26.638h.507V.884Z"/><path d="M16.575.884h-.507v26.638h.507zM17.082.884h-.507v26.638h.507z"/><path d="M17.574.884h-.507v26.638h.507V.884Zm.507 0h-.507v26.638h.507V.884Z"/><path d="M18.573.884h-.507v26.638h.507V.884Zm.507 0h-.507v26.638h.507V.884Zm.507 0h-.507v26.638h.507V.884Z"/><path d="M20.08.884h-.508v26.638h.507V.884z"/><path d="M20.586.884h-.507v26.638h.507z"/><path d="M21.078.884h-.507v26.638h.507zM21.585.884h-.507v26.638h.507z"/><path d="M22.077.884h-.507v26.638h.507V.884Zm.507 0h-.507v26.638h.507V.884Z"/><path d="M23.091.884h-.507v26.638h.507z"/><path d="M23.583.884h-.507v26.638h.507V.884Zm.507 0h-.507v26.638h.507V.884Z"/><path d="M24.582.884h-.506v26.638h.507V.884z"/><path d="M25.09.884h-.508v26.638h.508z"/><path d="M25.582.884h-.507v26.638h.507V.884Zm.507 0h-.507v26.638h.507V.884Z"/><path d="M26.58.884h-.506v26.638h.507V.884zM27.088.884h-.507v26.638h.507z"/></g></g><path fill="#0068FF" fill-rule="nonzero" d="M196.027 109.006c-1.342 1.401-2.804 2.773-3.982 3.846a92.804 92.804 0 0 0-3.772 3.622s0 .135-.075.209c-.074 5.322-.074 10.777-.074 16.069v10.181a35.458 35.458 0 0 1-10.588 26.101 35.117 35.117 0 0 1-24.38 9.242c-.716 0-1.492 0-2.163-.074a12.838 12.838 0 0 1-9.029-3.865 12.816 12.816 0 0 1-3.645-9.119c.134-6.976 5.562-12.178 12.928-12.387h2.699c5.353-.149 8.544-3.279 8.723-8.601.075-2.042 0-4.144 0-6.126v-9.213c0-5.083 0-10.434-.074-15.771a15.462 15.462 0 0 1 5.607-12.849c1.834-1.49 3.668-3.324 5.442-4.993l1.268-1.223 1.715-1.64c1.819-1.714 2.028-2.757 2.028-3.13 0-.373-.209-1.49-2.088-3.205l-2.162-2.057c-2.237-2.131-4.548-4.338-6.86-6.38a14.332 14.332 0 0 1-4.92-11.224V34.862c0-4.8-2.371-8.02-6.457-8.944a17.729 17.729 0 0 0-3.236-.179h-1.491c-7.59-.179-13.227-5.754-13.122-12.924.104-7.17 5.621-12.268 13.107-12.506 15.955-.507 27.199 6.141 33.477 19.736a44.391 44.391 0 0 1 3.086 14.042c.264 3.068.329 6.15.194 9.227v8.839c0 3.19 0 6.47.075 9.645.023.103.069.2.134.283 1.193 1.252 2.58 2.534 3.802 3.667l.343.313c1.104 1.028 2.252 2.102 3.37 3.25 10.861 10.984 10.915 28.646.12 39.695ZM66.668 164.965c.363 6.586-4.48 12.31-11.035 13.043a37.97 37.97 0 0 1-4.369.253 34.422 34.422 0 0 1-22.367-7.811 32.205 32.205 0 0 1-11.646-22.106 279.727 279.727 0 0 1-.313-28.456v-.134c.074-2.981-.671-4.159-2.162-5.337a47.023 47.023 0 0 1-7.755-7.662c-8.83-11.059-8.05-26.96 1.82-37.102 1.297-1.341 2.654-2.593 3.847-3.696a54.706 54.706 0 0 0 3.847-3.727c.1-.127.18-.267.239-.417.074-3.772 0-7.573 0-11.27 0-6.499 0-13.207.357-19.915C18.116 14.396 32.462.816 49.132.413c1.79 0 3.37-.074 4.92 0a12.686 12.686 0 0 1 9.096 3.39 12.677 12.677 0 0 1-8.186 21.951c-1.07.1-2.146.135-3.22.104h-1.283a7.83 7.83 0 0 0-8.067 7.305c-.239 3.115-.209 6.394-.18 9.555v23.805a14.096 14.096 0 0 1-4.8 11.03 462.388 462.388 0 0 0-9.5 8.945l-.238.223a4.174 4.174 0 0 0-1.491 2.639 4.263 4.263 0 0 0 1.715 2.623l.895.85c2.892 2.728 5.89 5.575 8.857 8.288a13.71 13.71 0 0 1 4.682 10.807v31.751c0 5.828 3.325 9.078 9.216 9.137h3.295c3.127.198 6.07 1.55 8.255 3.796a12.623 12.623 0 0 1 3.57 8.353Z"/><path fill="#0068FF" fill-rule="nonzero" d="M153.156 89.3c-.032 8.85-7.21 16.011-16.06 16.024-8.828-.037-15.97-7.196-15.985-16.024a15.906 15.906 0 0 1 4.741-11.388 15.83 15.83 0 0 1 11.259-4.666c8.85.037 16.013 7.205 16.045 16.054Zm-69.295-.12a16.035 16.035 0 0 1-9.901 14.788 16.052 16.052 0 0 1-17.463-3.45 16.034 16.034 0 0 1 2.333-24.655 16.049 16.049 0 0 1 8.882-2.751 15.78 15.78 0 0 1 11.348 4.606 16.038 16.038 0 0 1 4.8 11.462h.001Zm34.715.12a16.087 16.087 0 0 1-19.263 15.695 16.091 16.091 0 0 1-8.22-4.411 16.05 16.05 0 0 1 5.32-26.136c7.628-3.13 16.388.02 20.272 7.294a16.047 16.047 0 0 1 1.891 7.558Z"/></g></svg>