<svg xmlns="http://www.w3.org/2000/svg" fill="none" aria-hidden="true" class="h-8" viewBox="0 0 32 32"><path fill="url(#a)" fill-rule="evenodd" d="M24.6 12.8a1 1 0 0 1-1.6.7L10.7.9A16 16 0 0 1 16 0c3.2 0 6.1 1 8.6 2.5zm4.5-6v6c0 4.9-5.9 7.3-9.3 3.8L6.5 3.1A16 16 0 0 0 3 25v-5.9c0-4.9 5.9-7.3 9.3-3.8l13.2 13.5a16 16 0 0 0 3.7-22m-20 11.6 12.2 12.6a16 16 0 0 1-14-1.6V19.2a1 1 0 0 1 1.7-.7" clip-rule="evenodd"/><path fill="url(#b)" fill-rule="evenodd" d="M24.6 12.8a1 1 0 0 1-1.6.7L10.7.9A16 16 0 0 1 16 0c3.2 0 6.1 1 8.6 2.5zm4.5-6v6c0 4.9-5.9 7.3-9.3 3.8L6.5 3.1A16 16 0 0 0 3 25v-5.9c0-4.9 5.9-7.3 9.3-3.8l13.2 13.5a16 16 0 0 0 3.7-22m-20 11.6 12.2 12.6a16 16 0 0 1-14-1.6V19.2a1 1 0 0 1 1.7-.7" clip-rule="evenodd"/><path fill="url(#c)" fill-rule="evenodd" d="M24.6 12.8a1 1 0 0 1-1.6.7L10.7.9A16 16 0 0 1 16 0c3.2 0 6.1 1 8.6 2.5zm4.5-6v6c0 4.9-5.9 7.3-9.3 3.8L6.5 3.1A16 16 0 0 0 3 25v-5.9c0-4.9 5.9-7.3 9.3-3.8l13.2 13.5a16 16 0 0 0 3.7-22m-20 11.6 12.2 12.6a16 16 0 0 1-14-1.6V19.2a1 1 0 0 1 1.7-.7" clip-rule="evenodd"/><defs><linearGradient id="b" x1="19.7" x2="16" y1="-1.1" y2="32" gradientUnits="userSpaceOnUse"><stop offset=".1" stop-color="#FFBA33"/><stop offset=".6" stop-color="#FF006A" stop-opacity="0"/></linearGradient><linearGradient id="c" x1="16" x2="16" y1="0" y2="32" gradientUnits="userSpaceOnUse"><stop offset=".5" stop-opacity="0"/><stop offset="1" stop-opacity=".6"/></linearGradient><radialGradient id="a" cx="0" cy="0" r="1" gradientTransform="rotate(135 4.7 11.3) scale(22.6274)" gradientUnits="userSpaceOnUse"><stop offset=".3" stop-color="#FF006A"/><stop offset=".6" stop-color="#E300BD"/><stop offset=".8" stop-color="#FF4CE1"/></radialGradient></defs></svg>